<mxfile host="app.diagrams.net" modified="2021-03-24T15:54:39.344Z" agent="5.0 (Macintosh; Intel Mac OS X 11_2_3) AppleWebKit/537.36 (KHTML, like Gecko) Chrome/89.0.4389.90 Safari/537.36" etag="lw6esZvQ_ZeCsOD2ZOSg" version="14.5.1" type="github">
  <diagram id="C5RBs43oDa-KdzZeNtuy" name="Page-1">
    <mxGraphModel dx="3550" dy="2532" grid="1" gridSize="10" guides="1" tooltips="1" connect="1" arrows="1" fold="1" page="1" pageScale="1" pageWidth="827" pageHeight="1169" math="0" shadow="0">
      <root>
        <mxCell id="WIyWlLk6GJQsqaUBKTNV-0" />
        <mxCell id="WIyWlLk6GJQsqaUBKTNV-1" parent="WIyWlLk6GJQsqaUBKTNV-0" />
        <mxCell id="wQyM_oGxPqQlltokziNy-2" value="&lt;meta charset=&quot;utf-8&quot;&gt;&lt;b style=&quot;font-weight: normal&quot; id=&quot;docs-internal-guid-32f2ac55-7fff-0cd5-32e0-9c12dda5c07a&quot;&gt;&amp;nbsp;&lt;table style=&quot;border: none ; border-collapse: collapse&quot;&gt;&lt;colgroup&gt;&lt;col width=&quot;176px&quot;&gt;&lt;/colgroup&gt;&lt;tbody&gt;&lt;tr style=&quot;height: 66px&quot;&gt;&lt;td style=&quot;background-color: #c8d9f9 ; opacity: 1 ; filter: alpha(opacity = 100) ; vertical-align: top ; border-left: solid #000000 1.330708661417323px ; border-right: solid #000000 1.330708661417323px ; border-top: solid #000000 1.330708661417323px ; border-bottom: solid #000000 1.330708661417323px ; padding-top: 10px ; padding-right: 7px ; padding-bottom: 10px ; padding-left: 7px&quot;&gt;&lt;p dir=&quot;ltr&quot; style=&quot;line-height: 1.2 ; text-align: center ; margin-top: 0pt ; margin-bottom: 0pt&quot;&gt;&lt;span style=&quot;font-size: 16pt; font-family: &amp;quot;times new roman&amp;quot;; color: rgb(0, 0, 0); background-color: transparent; font-weight: 700; font-style: normal; font-variant: normal; text-decoration: none; vertical-align: baseline;&quot;&gt;&amp;lt;&amp;lt;entity&amp;gt;&amp;gt;&lt;/span&gt;&lt;/p&gt;&lt;p dir=&quot;ltr&quot; style=&quot;line-height: 1.2 ; text-align: center ; margin-top: 0pt ; margin-bottom: 0pt&quot;&gt;&lt;span style=&quot;font-size: 16pt; font-family: &amp;quot;times new roman&amp;quot;; color: rgb(0, 0, 0); background-color: transparent; font-weight: 700; font-style: normal; font-variant: normal; text-decoration: none; vertical-align: baseline;&quot;&gt;Badge&lt;/span&gt;&lt;/p&gt;&lt;/td&gt;&lt;/tr&gt;&lt;tr style=&quot;height: 23px&quot;&gt;&lt;td style=&quot;vertical-align: top ; border-left: solid #000000 1.330708661417323px ; border-right: solid #000000 1.330708661417323px ; border-top: solid #000000 1.330708661417323px ; border-bottom: solid #000000 1.330708661417323px ; padding-top: 10px ; padding-right: 7px ; padding-bottom: 10px ; padding-left: 7px&quot;&gt;&lt;p dir=&quot;ltr&quot; style=&quot;line-height: 1.2 ; margin-top: 0pt ; margin-bottom: 0pt&quot;&gt;&lt;span style=&quot;font-size: 14pt; font-family: &amp;quot;times new roman&amp;quot;; color: rgb(0, 0, 0); background-color: transparent; font-weight: 400; font-style: normal; font-variant: normal; text-decoration: none; vertical-align: baseline;&quot;&gt;-badge_name: String&lt;/span&gt;&lt;/p&gt;&lt;p dir=&quot;ltr&quot; style=&quot;line-height: 1.2 ; margin-top: 0pt ; margin-bottom: 0pt&quot;&gt;&lt;span style=&quot;font-size: 14pt; font-family: arial; color: rgb(0, 0, 0); background-color: transparent; font-weight: 400; font-style: normal; font-variant: normal; text-decoration: none; vertical-align: baseline;&quot;&gt;-image_url: String&lt;/span&gt;&lt;/p&gt;&lt;/td&gt;&lt;/tr&gt;&lt;tr style=&quot;height: 38px&quot;&gt;&lt;td style=&quot;vertical-align: top ; border-left: solid #000000 1.330708661417323px ; border-right: solid #000000 1.330708661417323px ; border-top: solid #000000 1.330708661417323px ; border-bottom: solid #000000 1.330708661417323px ; padding-top: 10px ; padding-right: 7px ; padding-bottom: 10px ; padding-left: 7px&quot;&gt;&lt;p dir=&quot;ltr&quot; style=&quot;line-height: 1.2 ; margin-top: 0pt ; margin-bottom: 0pt&quot;&gt;&lt;span style=&quot;font-size: 14pt; font-family: arial; color: rgb(0, 0, 0); background-color: transparent; font-weight: 400; font-style: normal; font-variant: normal; text-decoration: none; vertical-align: baseline;&quot;&gt;&amp;nbsp;&lt;/span&gt;&lt;/p&gt;&lt;/td&gt;&lt;/tr&gt;&lt;/tbody&gt;&lt;/table&gt;&lt;/b&gt;" style="text;whiteSpace=wrap;html=1;" parent="WIyWlLk6GJQsqaUBKTNV-1" vertex="1">
          <mxGeometry x="410" y="180" width="200" height="190" as="geometry" />
        </mxCell>
        <mxCell id="wQyM_oGxPqQlltokziNy-5" value="&lt;meta charset=&quot;utf-8&quot;&gt;&lt;b style=&quot;font-weight: normal&quot; id=&quot;docs-internal-guid-a7db998e-7fff-4711-574c-0919b6f5d0d9&quot;&gt;&amp;nbsp;&lt;table style=&quot;border: none ; border-collapse: collapse&quot;&gt;&lt;colgroup&gt;&lt;col width=&quot;278px&quot;&gt;&lt;/colgroup&gt;&lt;tbody&gt;&lt;tr style=&quot;height: 41px&quot;&gt;&lt;td style=&quot;background-color: #d9ead3 ; opacity: 1 ; filter: alpha(opacity = 100) ; vertical-align: top ; border-left: solid #000000 1.330708661417323px ; border-right: solid #000000 1.330708661417323px ; border-top: solid #000000 1.330708661417323px ; border-bottom: solid #000000 1.330708661417323px ; padding-top: 10px ; padding-right: 7px ; padding-bottom: 10px ; padding-left: 7px&quot;&gt;&lt;p dir=&quot;ltr&quot; style=&quot;line-height: 1.2 ; text-align: center ; margin-top: 0pt ; margin-bottom: 0pt&quot;&gt;&lt;span style=&quot;font-size: 16pt; font-family: &amp;quot;times new roman&amp;quot;; color: rgb(0, 0, 0); background-color: transparent; font-weight: 700; font-style: normal; font-variant: normal; text-decoration: none; vertical-align: baseline;&quot;&gt;&amp;lt;&amp;lt;control&amp;gt;&amp;gt;&lt;/span&gt;&lt;/p&gt;&lt;p dir=&quot;ltr&quot; style=&quot;line-height: 1.2 ; text-align: center ; margin-top: 0pt ; margin-bottom: 0pt&quot;&gt;&lt;span style=&quot;font-size: 16pt; font-family: &amp;quot;times new roman&amp;quot;; color: rgb(0, 0, 0); background-color: transparent; font-weight: 700; font-style: normal; font-variant: normal; text-decoration: none; vertical-align: baseline;&quot;&gt;BadgesManager&lt;/span&gt;&lt;/p&gt;&lt;/td&gt;&lt;/tr&gt;&lt;tr style=&quot;height: 38px&quot;&gt;&lt;td style=&quot;vertical-align: top ; border-left: solid #000000 1.330708661417323px ; border-right: solid #000000 1.330708661417323px ; border-top: solid #000000 1.330708661417323px ; border-bottom: solid #000000 1.330708661417323px ; padding-top: 10px ; padding-right: 7px ; padding-bottom: 10px ; padding-left: 7px&quot;&gt;&lt;p dir=&quot;ltr&quot; style=&quot;line-height: 1.2 ; margin-top: 0pt ; margin-bottom: 0pt&quot;&gt;&lt;span style=&quot;font-size: 14pt; font-family: &amp;quot;times new roman&amp;quot;; color: rgb(0, 0, 0); background-color: transparent; font-weight: 400; font-style: normal; font-variant: normal; text-decoration: none; vertical-align: baseline;&quot;&gt;-database: db: DataBaseManager&lt;/span&gt;&lt;/p&gt;&lt;/td&gt;&lt;/tr&gt;&lt;tr style=&quot;height: 44px&quot;&gt;&lt;td style=&quot;vertical-align: top ; border-left: solid #000000 1.330708661417323px ; border-right: solid #000000 1.330708661417323px ; border-top: solid #000000 1.330708661417323px ; border-bottom: solid #000000 1.330708661417323px ; padding-top: 10px ; padding-right: 7px ; padding-bottom: 10px ; padding-left: 7px&quot;&gt;&lt;p dir=&quot;ltr&quot; style=&quot;line-height: 1.2 ; margin-top: 0pt ; margin-bottom: 0pt&quot;&gt;&lt;span style=&quot;font-size: 14pt; font-family: &amp;quot;times new roman&amp;quot;; color: rgb(0, 0, 0); background-color: transparent; font-weight: 400; font-style: normal; font-variant: normal; text-decoration: none; vertical-align: baseline;&quot;&gt;+refreshBadges(int): [b:Badge]&amp;nbsp;&lt;/span&gt;&lt;/p&gt;&lt;/td&gt;&lt;/tr&gt;&lt;/tbody&gt;&lt;/table&gt;&lt;/b&gt;" style="text;whiteSpace=wrap;html=1;" parent="WIyWlLk6GJQsqaUBKTNV-1" vertex="1">
          <mxGeometry x="250" y="-190" width="283" height="180" as="geometry" />
        </mxCell>
        <mxCell id="wQyM_oGxPqQlltokziNy-7" value="&lt;meta charset=&quot;utf-8&quot;&gt;&lt;b style=&quot;font-weight: normal&quot; id=&quot;docs-internal-guid-102a46e9-7fff-b2ee-8c5b-fd415bf8b91b&quot;&gt;&amp;nbsp;&lt;table style=&quot;border: none ; border-collapse: collapse&quot;&gt;&lt;colgroup&gt;&lt;col width=&quot;240px&quot;&gt;&lt;/colgroup&gt;&lt;tbody&gt;&lt;tr style=&quot;height: 42px&quot;&gt;&lt;td style=&quot;background-color: #c8d9f9 ; opacity: 1 ; filter: alpha(opacity = 100) ; vertical-align: top ; border-left: solid #000000 1.330708661417323px ; border-right: solid #000000 1.330708661417323px ; border-top: solid #000000 1.330708661417323px ; border-bottom: solid #000000 1.330708661417323px ; padding-top: 10px ; padding-right: 7px ; padding-bottom: 10px ; padding-left: 7px&quot;&gt;&lt;p dir=&quot;ltr&quot; style=&quot;line-height: 1.2 ; text-align: center ; margin-top: 0pt ; margin-bottom: 0pt&quot;&gt;&lt;span style=&quot;font-size: 16pt; font-family: &amp;quot;times new roman&amp;quot;; color: rgb(0, 0, 0); background-color: transparent; font-weight: 700; font-style: normal; font-variant: normal; text-decoration: none; vertical-align: baseline;&quot;&gt;&amp;lt;&amp;lt;entity&amp;gt;&amp;gt;&lt;/span&gt;&lt;/p&gt;&lt;p dir=&quot;ltr&quot; style=&quot;line-height: 1.2 ; text-align: center ; margin-top: 0pt ; margin-bottom: 0pt&quot;&gt;&lt;span style=&quot;font-size: 16pt; font-family: &amp;quot;times new roman&amp;quot;; color: rgb(0, 0, 0); background-color: transparent; font-weight: 700; font-style: normal; font-variant: normal; text-decoration: none; vertical-align: baseline;&quot;&gt;Administrator&lt;/span&gt;&lt;/p&gt;&lt;/td&gt;&lt;/tr&gt;&lt;tr style=&quot;height: 63px&quot;&gt;&lt;td style=&quot;vertical-align: top ; border-left: solid #000000 1.330708661417323px ; border-right: solid #000000 1.330708661417323px ; border-top: solid #000000 1.330708661417323px ; border-bottom: solid #000000 1.330708661417323px ; padding-top: 10px ; padding-right: 7px ; padding-bottom: 10px ; padding-left: 7px&quot;&gt;&lt;p dir=&quot;ltr&quot; style=&quot;line-height: 1.2 ; margin-top: 0pt ; margin-bottom: 0pt&quot;&gt;&lt;span style=&quot;font-size: 14pt; font-family: &amp;quot;times new roman&amp;quot;; color: rgb(0, 0, 0); background-color: transparent; font-weight: 400; font-style: normal; font-variant: normal; text-decoration: none; vertical-align: baseline;&quot;&gt;-adminid: Int&lt;/span&gt;&lt;/p&gt;&lt;p dir=&quot;ltr&quot; style=&quot;line-height: 1.2 ; margin-top: 0pt ; margin-bottom: 0pt&quot;&gt;&lt;span style=&quot;font-size: 14pt; font-family: &amp;quot;times new roman&amp;quot;; color: rgb(0, 0, 0); background-color: transparent; font-weight: 400; font-style: normal; font-variant: normal; text-decoration: none; vertical-align: baseline;&quot;&gt;-email: String&lt;/span&gt;&lt;/p&gt;&lt;p dir=&quot;ltr&quot; style=&quot;line-height: 1.2 ; margin-top: 0pt ; margin-bottom: 0pt&quot;&gt;&lt;span style=&quot;font-size: 14pt; font-family: &amp;quot;times new roman&amp;quot;; color: rgb(0, 0, 0); background-color: transparent; font-weight: 400; font-style: normal; font-variant: normal; text-decoration: none; vertical-align: baseline;&quot;&gt;-password: Byte[]&lt;/span&gt;&lt;/p&gt;&lt;/td&gt;&lt;/tr&gt;&lt;tr style=&quot;height: 39px&quot;&gt;&lt;td style=&quot;vertical-align: top ; border-left: solid #000000 1.330708661417323px ; border-right: solid #000000 1.330708661417323px ; border-top: solid #000000 1.330708661417323px ; border-bottom: solid #000000 1.330708661417323px ; padding-top: 10px ; padding-right: 7px ; padding-bottom: 10px ; padding-left: 7px&quot;&gt;&lt;p dir=&quot;ltr&quot; style=&quot;line-height: 1.2 ; margin-top: 0pt ; margin-bottom: 0pt&quot;&gt;&lt;span style=&quot;font-size: 14pt; font-family: arial; color: rgb(0, 0, 0); background-color: transparent; font-weight: 400; font-style: normal; font-variant: normal; text-decoration: none; vertical-align: baseline;&quot;&gt;&amp;nbsp;&lt;/span&gt;&lt;/p&gt;&lt;/td&gt;&lt;/tr&gt;&lt;/tbody&gt;&lt;/table&gt;&lt;/b&gt;" style="text;whiteSpace=wrap;html=1;" parent="WIyWlLk6GJQsqaUBKTNV-1" vertex="1">
          <mxGeometry x="320" y="930" width="250" height="230" as="geometry" />
        </mxCell>
        <mxCell id="wQyM_oGxPqQlltokziNy-8" value="&lt;meta charset=&quot;utf-8&quot;&gt;&lt;b style=&quot;font-weight: normal&quot; id=&quot;docs-internal-guid-fb555f75-7fff-ffb7-ab83-3d34b5f67b0b&quot;&gt;&amp;nbsp;&lt;table style=&quot;border: none ; border-collapse: collapse&quot;&gt;&lt;colgroup&gt;&lt;col width=&quot;249px&quot;&gt;&lt;/colgroup&gt;&lt;tbody&gt;&lt;tr style=&quot;height: 53px&quot;&gt;&lt;td style=&quot;background-color: #c8d9f9 ; opacity: 1 ; filter: alpha(opacity = 100) ; vertical-align: top ; border-left: solid #000000 1.330708661417323px ; border-right: solid #000000 1.330708661417323px ; border-top: solid #000000 1.330708661417323px ; border-bottom: solid #000000 1.330708661417323px ; padding-top: 10px ; padding-right: 7px ; padding-bottom: 10px ; padding-left: 7px&quot;&gt;&lt;p dir=&quot;ltr&quot; style=&quot;line-height: 1.2 ; text-align: center ; margin-top: 0pt ; margin-bottom: 0pt&quot;&gt;&lt;span style=&quot;font-size: 16pt; font-family: &amp;quot;times new roman&amp;quot;; color: rgb(0, 0, 0); background-color: transparent; font-weight: 700; font-style: normal; font-variant: normal; text-decoration: none; vertical-align: baseline;&quot;&gt;&amp;lt;&amp;lt;entity&amp;gt;&amp;gt;&lt;/span&gt;&lt;/p&gt;&lt;p dir=&quot;ltr&quot; style=&quot;line-height: 1.2 ; text-align: center ; margin-top: 0pt ; margin-bottom: 0pt&quot;&gt;&lt;span style=&quot;font-size: 16pt; font-family: &amp;quot;times new roman&amp;quot;; color: rgb(0, 0, 0); background-color: transparent; font-weight: 700; font-style: normal; font-variant: normal; text-decoration: none; vertical-align: baseline;&quot;&gt;Message&lt;/span&gt;&lt;/p&gt;&lt;/td&gt;&lt;/tr&gt;&lt;tr style=&quot;height: 62px&quot;&gt;&lt;td style=&quot;vertical-align: top ; border-left: solid #000000 1.330708661417323px ; border-right: solid #000000 1.330708661417323px ; border-top: solid #000000 1.330708661417323px ; border-bottom: solid #000000 1.330708661417323px ; padding-top: 10px ; padding-right: 7px ; padding-bottom: 10px ; padding-left: 7px&quot;&gt;&lt;p dir=&quot;ltr&quot; style=&quot;line-height: 1.2 ; margin-top: 0pt ; margin-bottom: 0pt&quot;&gt;&lt;span style=&quot;font-size: 14pt; font-family: &amp;quot;times new roman&amp;quot;; color: rgb(0, 0, 0); background-color: transparent; font-weight: 400; font-style: normal; font-variant: normal; text-decoration: none; vertical-align: baseline;&quot;&gt;-senderid: Int&lt;/span&gt;&lt;/p&gt;&lt;p dir=&quot;ltr&quot; style=&quot;line-height: 1.2 ; margin-top: 0pt ; margin-bottom: 0pt&quot;&gt;&lt;span style=&quot;font-size: 14pt; font-family: &amp;quot;times new roman&amp;quot;; color: rgb(0, 0, 0); background-color: transparent; font-weight: 400; font-style: normal; font-variant: normal; text-decoration: none; vertical-align: baseline;&quot;&gt;-content: String&lt;/span&gt;&lt;/p&gt;&lt;p dir=&quot;ltr&quot; style=&quot;line-height: 1.2 ; margin-top: 0pt ; margin-bottom: 0pt&quot;&gt;&lt;span style=&quot;font-size: 14pt; font-family: &amp;quot;times new roman&amp;quot;; color: rgb(0, 0, 0); background-color: transparent; font-weight: 400; font-style: normal; font-variant: normal; text-decoration: none; vertical-align: baseline;&quot;&gt;-date: String&lt;/span&gt;&lt;/p&gt;&lt;/td&gt;&lt;/tr&gt;&lt;tr style=&quot;height: 32px&quot;&gt;&lt;td style=&quot;vertical-align: top ; border-left: solid #000000 1.330708661417323px ; border-right: solid #000000 1.330708661417323px ; border-top: solid #000000 1.330708661417323px ; border-bottom: solid #000000 1.330708661417323px ; padding-top: 10px ; padding-right: 7px ; padding-bottom: 10px ; padding-left: 7px&quot;&gt;&amp;nbsp;&lt;/td&gt;&lt;/tr&gt;&lt;/tbody&gt;&lt;/table&gt;&lt;/b&gt;" style="text;whiteSpace=wrap;html=1;" parent="WIyWlLk6GJQsqaUBKTNV-1" vertex="1">
          <mxGeometry x="-300" y="810" width="240" height="220" as="geometry" />
        </mxCell>
        <mxCell id="wQyM_oGxPqQlltokziNy-10" value="&lt;meta charset=&quot;utf-8&quot;&gt;&lt;b style=&quot;font-weight: normal&quot; id=&quot;docs-internal-guid-c2a595e2-7fff-4fe5-c91d-e28788fa167e&quot;&gt;&amp;nbsp;&lt;table style=&quot;border: none ; border-collapse: collapse&quot;&gt;&lt;colgroup&gt;&lt;col width=&quot;249px&quot;&gt;&lt;/colgroup&gt;&lt;tbody&gt;&lt;tr style=&quot;height: 53px&quot;&gt;&lt;td style=&quot;background-color: #c8d9f9 ; opacity: 1 ; filter: alpha(opacity = 100) ; vertical-align: top ; border-left: solid #000000 1.330708661417323px ; border-right: solid #000000 1.330708661417323px ; border-top: solid #000000 1.330708661417323px ; border-bottom: solid #000000 1.330708661417323px ; padding-top: 10px ; padding-right: 7px ; padding-bottom: 10px ; padding-left: 7px&quot;&gt;&lt;p dir=&quot;ltr&quot; style=&quot;line-height: 1.2 ; text-align: center ; margin-top: 0pt ; margin-bottom: 0pt&quot;&gt;&lt;span style=&quot;font-size: 16pt; font-family: &amp;quot;times new roman&amp;quot;; color: rgb(0, 0, 0); background-color: transparent; font-weight: 700; font-style: normal; font-variant: normal; text-decoration: none; vertical-align: baseline;&quot;&gt;&amp;lt;&amp;lt;entity&amp;gt;&amp;gt;&lt;/span&gt;&lt;/p&gt;&lt;p dir=&quot;ltr&quot; style=&quot;line-height: 1.2 ; text-align: center ; margin-top: 0pt ; margin-bottom: 0pt&quot;&gt;&lt;span style=&quot;font-size: 16pt; font-family: &amp;quot;times new roman&amp;quot;; color: rgb(0, 0, 0); background-color: transparent; font-weight: 700; font-style: normal; font-variant: normal; text-decoration: none; vertical-align: baseline;&quot;&gt;Chat&lt;/span&gt;&lt;/p&gt;&lt;/td&gt;&lt;/tr&gt;&lt;tr style=&quot;height: 62px&quot;&gt;&lt;td style=&quot;vertical-align: top ; border-left: solid #000000 1.330708661417323px ; border-right: solid #000000 1.330708661417323px ; border-top: solid #000000 1.330708661417323px ; border-bottom: solid #000000 1.330708661417323px ; padding-top: 10px ; padding-right: 7px ; padding-bottom: 10px ; padding-left: 7px&quot;&gt;&lt;p dir=&quot;ltr&quot; style=&quot;line-height: 1.2 ; margin-top: 0pt ; margin-bottom: 0pt&quot;&gt;&lt;span style=&quot;font-size: 14pt; font-family: &amp;quot;times new roman&amp;quot;; color: rgb(0, 0, 0); background-color: transparent; font-weight: 400; font-style: normal; font-variant: normal; text-decoration: none; vertical-align: baseline;&quot;&gt;-userid_1: Int&lt;/span&gt;&lt;/p&gt;&lt;p dir=&quot;ltr&quot; style=&quot;line-height: 1.2 ; margin-top: 0pt ; margin-bottom: 0pt&quot;&gt;&lt;span style=&quot;font-size: 14pt; font-family: &amp;quot;times new roman&amp;quot;; color: rgb(0, 0, 0); background-color: transparent; font-weight: 400; font-style: normal; font-variant: normal; text-decoration: none; vertical-align: baseline;&quot;&gt;-userid_2: Int&lt;/span&gt;&lt;/p&gt;&lt;/td&gt;&lt;/tr&gt;&lt;tr style=&quot;height: 32px&quot;&gt;&lt;td style=&quot;vertical-align: top ; border-left: solid #000000 1.330708661417323px ; border-right: solid #000000 1.330708661417323px ; border-top: solid #000000 1.330708661417323px ; border-bottom: solid #000000 1.330708661417323px ; padding-top: 10px ; padding-right: 7px ; padding-bottom: 10px ; padding-left: 7px&quot;&gt;&lt;p dir=&quot;ltr&quot; style=&quot;line-height: 1.2 ; margin-top: 0pt ; margin-bottom: 0pt&quot;&gt;&lt;span style=&quot;font-size: 14pt; font-family: &amp;quot;times new roman&amp;quot;; color: rgb(0, 0, 0); background-color: transparent; font-weight: 400; font-style: normal; font-variant: normal; text-decoration: none; vertical-align: baseline;&quot;&gt;+getMessageHistory()&lt;/span&gt;&lt;/p&gt;&lt;p dir=&quot;ltr&quot; style=&quot;line-height: 1.2 ; margin-top: 0pt ; margin-bottom: 0pt&quot;&gt;&lt;span style=&quot;font-size: 14pt; font-family: &amp;quot;times new roman&amp;quot;; color: rgb(0, 0, 0); background-color: transparent; font-weight: 400; font-style: normal; font-variant: normal; text-decoration: none; vertical-align: baseline;&quot;&gt;+newMessage(int,string)&lt;/span&gt;&lt;/p&gt;&lt;/td&gt;&lt;/tr&gt;&lt;/tbody&gt;&lt;/table&gt;&lt;/b&gt;" style="text;whiteSpace=wrap;html=1;" parent="WIyWlLk6GJQsqaUBKTNV-1" vertex="1">
          <mxGeometry x="-330" y="430" width="250" height="220" as="geometry" />
        </mxCell>
        <mxCell id="wQyM_oGxPqQlltokziNy-12" value="&lt;meta charset=&quot;utf-8&quot;&gt;&lt;b style=&quot;font-weight: normal&quot; id=&quot;docs-internal-guid-58e743fc-7fff-a1fe-8975-cbec3e07dacb&quot;&gt;&amp;nbsp;&lt;table style=&quot;border: none ; border-collapse: collapse&quot;&gt;&lt;colgroup&gt;&lt;col width=&quot;264px&quot;&gt;&lt;/colgroup&gt;&lt;tbody&gt;&lt;tr style=&quot;height: 46px&quot;&gt;&lt;td style=&quot;background-color: #c8d9f9 ; opacity: 1 ; filter: alpha(opacity = 100) ; vertical-align: top ; border-left: solid #000000 1.330708661417323px ; border-right: solid #000000 1.330708661417323px ; border-top: solid #000000 1.330708661417323px ; border-bottom: solid #000000 1.330708661417323px ; padding-top: 10px ; padding-right: 7px ; padding-bottom: 10px ; padding-left: 7px&quot;&gt;&lt;p dir=&quot;ltr&quot; style=&quot;line-height: 1.2 ; text-align: center ; margin-top: 0pt ; margin-bottom: 0pt&quot;&gt;&lt;span style=&quot;font-size: 16pt; font-family: &amp;quot;times new roman&amp;quot;; color: rgb(0, 0, 0); background-color: transparent; font-weight: 700; font-style: normal; font-variant: normal; text-decoration: none; vertical-align: baseline;&quot;&gt;&amp;lt;&amp;lt;entity&amp;gt;&amp;gt;&lt;/span&gt;&lt;/p&gt;&lt;p dir=&quot;ltr&quot; style=&quot;line-height: 1.2 ; text-align: center ; margin-top: 0pt ; margin-bottom: 0pt&quot;&gt;&lt;span style=&quot;font-size: 16pt; font-family: &amp;quot;times new roman&amp;quot;; color: rgb(0, 0, 0); background-color: transparent; font-weight: 700; font-style: normal; font-variant: normal; text-decoration: none; vertical-align: baseline;&quot;&gt;User&lt;/span&gt;&lt;/p&gt;&lt;/td&gt;&lt;/tr&gt;&lt;tr style=&quot;height: 120px&quot;&gt;&lt;td style=&quot;vertical-align: top ; border-left: solid #000000 1.330708661417323px ; border-right: solid #000000 1.330708661417323px ; border-top: solid #000000 1.330708661417323px ; border-bottom: solid #000000 1.330708661417323px ; padding-top: 10px ; padding-right: 7px ; padding-bottom: 10px ; padding-left: 7px&quot;&gt;&lt;p dir=&quot;ltr&quot; style=&quot;line-height: 1.2 ; margin-top: 0pt ; margin-bottom: 0pt&quot;&gt;&lt;span style=&quot;font-size: 14pt; font-family: &amp;quot;times new roman&amp;quot;; color: rgb(0, 0, 0); background-color: transparent; font-weight: 400; font-style: normal; font-variant: normal; text-decoration: none; vertical-align: baseline;&quot;&gt;-userid: Int&lt;/span&gt;&lt;/p&gt;&lt;p dir=&quot;ltr&quot; style=&quot;line-height: 1.2 ; margin-top: 0pt ; margin-bottom: 0pt&quot;&gt;&lt;span style=&quot;font-size: 14pt; font-family: &amp;quot;times new roman&amp;quot;; color: rgb(0, 0, 0); background-color: transparent; font-weight: 400; font-style: normal; font-variant: normal; text-decoration: none; vertical-align: baseline;&quot;&gt;-email: String&lt;/span&gt;&lt;/p&gt;&lt;p dir=&quot;ltr&quot; style=&quot;line-height: 1.2 ; margin-top: 0pt ; margin-bottom: 0pt&quot;&gt;&lt;span style=&quot;font-size: 14pt; font-family: &amp;quot;times new roman&amp;quot;; color: rgb(0, 0, 0); background-color: transparent; font-weight: 400; font-style: normal; font-variant: normal; text-decoration: none; vertical-align: baseline;&quot;&gt;-password: Byte[]&lt;/span&gt;&lt;/p&gt;&lt;p dir=&quot;ltr&quot; style=&quot;line-height: 1.2 ; margin-top: 0pt ; margin-bottom: 0pt&quot;&gt;&lt;span style=&quot;font-size: 14pt; font-family: &amp;quot;times new roman&amp;quot;; color: rgb(0, 0, 0); background-color: transparent; font-weight: 400; font-style: normal; font-variant: normal; text-decoration: none; vertical-align: baseline;&quot;&gt;+first_name: String&lt;/span&gt;&lt;/p&gt;&lt;p dir=&quot;ltr&quot; style=&quot;line-height: 1.2 ; margin-top: 0pt ; margin-bottom: 0pt&quot;&gt;&lt;span style=&quot;font-size: 14pt; font-family: &amp;quot;times new roman&amp;quot;; color: rgb(0, 0, 0); background-color: transparent; font-weight: 400; font-style: normal; font-variant: normal; text-decoration: none; vertical-align: baseline;&quot;&gt;-last_name: String&lt;/span&gt;&lt;/p&gt;&lt;p dir=&quot;ltr&quot; style=&quot;line-height: 1.2 ; margin-top: 0pt ; margin-bottom: 0pt&quot;&gt;&lt;span style=&quot;font-size: 14pt; font-family: &amp;quot;times new roman&amp;quot;; color: rgb(0, 0, 0); background-color: transparent; font-weight: 400; font-style: normal; font-variant: normal; text-decoration: none; vertical-align: baseline;&quot;&gt;-address: String&lt;/span&gt;&lt;/p&gt;&lt;p dir=&quot;ltr&quot; style=&quot;line-height: 1.2 ; margin-top: 0pt ; margin-bottom: 0pt&quot;&gt;&lt;span style=&quot;font-size: 14pt; font-family: &amp;quot;times new roman&amp;quot;; color: rgb(0, 0, 0); background-color: transparent; font-weight: 400; font-style: normal; font-variant: normal; text-decoration: none; vertical-align: baseline;&quot;&gt;-cardDetails: Dict&lt;/span&gt;&lt;/p&gt;&lt;p dir=&quot;ltr&quot; style=&quot;line-height: 1.2 ; margin-top: 0pt ; margin-bottom: 0pt&quot;&gt;&lt;span style=&quot;font-size: 14pt; font-family: &amp;quot;times new roman&amp;quot;; color: rgb(0, 0, 0); background-color: transparent; font-weight: 400; font-style: normal; font-variant: normal; text-decoration: none; vertical-align: baseline;&quot;&gt;+reviews: Review[]&lt;/span&gt;&lt;/p&gt;&lt;p dir=&quot;ltr&quot; style=&quot;line-height: 1.2 ; margin-top: 0pt ; margin-bottom: 0pt&quot;&gt;&lt;span style=&quot;font-size: 14pt; font-family: &amp;quot;times new roman&amp;quot;; color: rgb(0, 0, 0); background-color: transparent; font-weight: 400; font-style: normal; font-variant: normal; text-decoration: none; vertical-align: baseline;&quot;&gt;+badges: Badge()&lt;/span&gt;&lt;/p&gt;&lt;p dir=&quot;ltr&quot; style=&quot;line-height: 1.2 ; margin-top: 0pt ; margin-bottom: 0pt&quot;&gt;&lt;span style=&quot;font-size: 14pt; font-family: &amp;quot;times new roman&amp;quot;; color: rgb(0, 0, 0); background-color: transparent; font-weight: 400; font-style: normal; font-variant: normal; text-decoration: none; vertical-align: baseline;&quot;&gt;+picture_url: Stirng&lt;/span&gt;&lt;/p&gt;&lt;/td&gt;&lt;/tr&gt;&lt;tr style=&quot;height: 40px&quot;&gt;&lt;td style=&quot;vertical-align: top ; border-left: solid #000000 1.330708661417323px ; border-right: solid #000000 1.330708661417323px ; border-top: solid #000000 1.330708661417323px ; border-bottom: solid #000000 1.330708661417323px ; padding-top: 10px ; padding-right: 7px ; padding-bottom: 10px ; padding-left: 7px&quot;&gt;&lt;p dir=&quot;ltr&quot; style=&quot;line-height: 1.2 ; margin-top: 0pt ; margin-bottom: 0pt&quot;&gt;&lt;span style=&quot;font-size: 14pt; font-family: &amp;quot;times new roman&amp;quot;; color: rgb(0, 0, 0); background-color: transparent; font-weight: 400; font-style: normal; font-variant: normal; text-decoration: none; vertical-align: baseline;&quot;&gt;+editAccountDetails()&lt;/span&gt;&lt;/p&gt;&lt;p dir=&quot;ltr&quot; style=&quot;line-height: 1.2 ; margin-top: 0pt ; margin-bottom: 0pt&quot;&gt;&lt;span style=&quot;font-size: 14pt; font-family: &amp;quot;times new roman&amp;quot;; color: rgb(0, 0, 0); background-color: transparent; font-weight: 400; font-style: normal; font-variant: normal; text-decoration: none; vertical-align: baseline;&quot;&gt;+volunteer(int)&lt;/span&gt;&lt;/p&gt;&lt;p dir=&quot;ltr&quot; style=&quot;line-height: 1.2 ; margin-top: 0pt ; margin-bottom: 0pt&quot;&gt;&lt;span style=&quot;font-size: 14pt; font-family: &amp;quot;times new roman&amp;quot;; color: rgb(0, 0, 0); background-color: transparent; font-weight: 400; font-style: normal; font-variant: normal; text-decoration: none; vertical-align: baseline;&quot;&gt;+hire(int)&lt;/span&gt;&lt;/p&gt;&lt;p dir=&quot;ltr&quot; style=&quot;line-height: 1.2 ; margin-top: 0pt ; margin-bottom: 0pt&quot;&gt;&lt;span style=&quot;font-size: 14pt; font-family: &amp;quot;times new roman&amp;quot;; color: rgb(0, 0, 0); background-color: transparent; font-weight: 400; font-style: normal; font-variant: normal; text-decoration: none; vertical-align: baseline;&quot;&gt;+acceptVolunteer(int)&lt;/span&gt;&lt;/p&gt;&lt;p dir=&quot;ltr&quot; style=&quot;line-height: 1.2 ; margin-top: 0pt ; margin-bottom: 0pt&quot;&gt;&lt;span style=&quot;font-size: 14pt; font-family: &amp;quot;times new roman&amp;quot;; color: rgb(0, 0, 0); background-color: transparent; font-weight: 400; font-style: normal; font-variant: normal; text-decoration: none; vertical-align: baseline;&quot;&gt;+acceptHire(int)&lt;/span&gt;&lt;/p&gt;&lt;p dir=&quot;ltr&quot; style=&quot;line-height: 1.2 ; margin-top: 0pt ; margin-bottom: 0pt&quot;&gt;&lt;span style=&quot;font-size: 14pt; font-family: &amp;quot;times new roman&amp;quot;; color: rgb(0, 0, 0); background-color: transparent; font-weight: 400; font-style: normal; font-variant: normal; text-decoration: none; vertical-align: baseline;&quot;&gt;+cancelBooking(int)&lt;/span&gt;&lt;/p&gt;&lt;p dir=&quot;ltr&quot; style=&quot;line-height: 1.2 ; margin-top: 0pt ; margin-bottom: 0pt&quot;&gt;&lt;span style=&quot;font-size: 14pt; font-family: &amp;quot;times new roman&amp;quot;; color: rgb(0, 0, 0); background-color: transparent; font-weight: 400; font-style: normal; font-variant: normal; text-decoration: none; vertical-align: baseline;&quot;&gt;+addBadge(b:Badge)&lt;/span&gt;&lt;/p&gt;&lt;p dir=&quot;ltr&quot; style=&quot;line-height: 1.2 ; margin-top: 0pt ; margin-bottom: 0pt&quot;&gt;&lt;span style=&quot;font-size: 14pt; font-family: &amp;quot;times new roman&amp;quot;; color: rgb(0, 0, 0); background-color: transparent; font-weight: 400; font-style: normal; font-variant: normal; text-decoration: none; vertical-align: baseline;&quot;&gt;+removeBadge(b:Badge)&lt;/span&gt;&lt;/p&gt;&lt;/td&gt;&lt;/tr&gt;&lt;/tbody&gt;&lt;/table&gt;&lt;/b&gt;" style="text;whiteSpace=wrap;html=1;" parent="WIyWlLk6GJQsqaUBKTNV-1" vertex="1">
          <mxGeometry x="110" y="340" width="260" height="290" as="geometry" />
        </mxCell>
        <mxCell id="wQyM_oGxPqQlltokziNy-13" value="&lt;b style=&quot;font-weight: normal&quot; id=&quot;docs-internal-guid-3d7ef241-7fff-c206-9803-10bf7b564cb2&quot;&gt;&amp;nbsp;&lt;table style=&quot;border: none ; border-collapse: collapse&quot;&gt;&lt;colgroup&gt;&lt;col width=&quot;278px&quot;&gt;&lt;/colgroup&gt;&lt;tbody&gt;&lt;tr style=&quot;height: 65px&quot;&gt;&lt;td style=&quot;background-color: #d9ead3 ; opacity: 1 ; filter: alpha(opacity = 100) ; vertical-align: top ; border-left: solid #000000 1.330708661417323px ; border-right: solid #000000 1.330708661417323px ; border-top: solid #000000 1.330708661417323px ; border-bottom: solid #000000 1.330708661417323px ; padding-top: 10px ; padding-right: 7px ; padding-bottom: 10px ; padding-left: 7px&quot;&gt;&lt;p dir=&quot;ltr&quot; style=&quot;line-height: 1.2 ; text-align: center ; margin-top: 0pt ; margin-bottom: 0pt&quot;&gt;&lt;span style=&quot;font-size: 16pt ; font-family: &amp;#34;times new roman&amp;#34; ; color: rgb(0 , 0 , 0) ; background-color: transparent ; font-weight: 700 ; font-style: normal ; font-variant: normal ; text-decoration: none ; vertical-align: baseline&quot;&gt;&amp;lt;&amp;lt;control&amp;gt;&amp;gt;&lt;/span&gt;&lt;/p&gt;&lt;p dir=&quot;ltr&quot; style=&quot;line-height: 1.2 ; text-align: center ; margin-top: 0pt ; margin-bottom: 0pt&quot;&gt;&lt;span style=&quot;font-size: 16pt ; font-family: &amp;#34;times new roman&amp;#34; ; color: rgb(0 , 0 , 0) ; background-color: transparent ; font-weight: 700 ; font-style: normal ; font-variant: normal ; text-decoration: none ; vertical-align: baseline&quot;&gt;ReportManager&lt;/span&gt;&lt;/p&gt;&lt;/td&gt;&lt;/tr&gt;&lt;tr style=&quot;height: 39px&quot;&gt;&lt;td style=&quot;vertical-align: top ; border-left: solid #000000 1.330708661417323px ; border-right: solid #000000 1.330708661417323px ; border-top: solid #000000 1.330708661417323px ; border-bottom: solid #000000 1.330708661417323px ; padding-top: 10px ; padding-right: 7px ; padding-bottom: 10px ; padding-left: 7px&quot;&gt;&lt;p dir=&quot;ltr&quot; style=&quot;line-height: 1.2 ; margin-top: 0pt ; margin-bottom: 0pt&quot;&gt;&lt;span style=&quot;font-size: 14pt ; font-family: &amp;#34;times new roman&amp;#34; ; color: rgb(0 , 0 , 0) ; background-color: transparent ; font-weight: 400 ; font-style: normal ; font-variant: normal ; text-decoration: none ; vertical-align: baseline&quot;&gt;-database: db: DataBaseManager&lt;/span&gt;&lt;/p&gt;&lt;/td&gt;&lt;/tr&gt;&lt;tr style=&quot;height: 72px&quot;&gt;&lt;td style=&quot;vertical-align: top ; border-left: solid #000000 1.330708661417323px ; border-right: solid #000000 1.330708661417323px ; border-top: solid #000000 1.330708661417323px ; border-bottom: solid #000000 1.330708661417323px ; padding-top: 10px ; padding-right: 7px ; padding-bottom: 10px ; padding-left: 7px&quot;&gt;&lt;p dir=&quot;ltr&quot; style=&quot;line-height: 1.2 ; margin-top: 0pt ; margin-bottom: 0pt&quot;&gt;&lt;span style=&quot;font-size: 14pt ; font-family: &amp;#34;times new roman&amp;#34; ; color: rgb(0 , 0 , 0) ; background-color: transparent ; font-weight: 400 ; font-style: normal ; font-variant: normal ; text-decoration: none ; vertical-align: baseline&quot;&gt;+createReport()&lt;/span&gt;&lt;/p&gt;&lt;p dir=&quot;ltr&quot; style=&quot;line-height: 1.2 ; margin-top: 0pt ; margin-bottom: 0pt&quot;&gt;&lt;span style=&quot;font-size: 14pt ; font-family: &amp;#34;times new roman&amp;#34; ; color: rgb(0 , 0 , 0) ; background-color: transparent ; font-weight: 400 ; font-style: normal ; font-variant: normal ; text-decoration: none ; vertical-align: baseline&quot;&gt;+respondReport(Int,String)&lt;/span&gt;&lt;/p&gt;&lt;/td&gt;&lt;/tr&gt;&lt;/tbody&gt;&lt;/table&gt;&lt;/b&gt;" style="text;whiteSpace=wrap;html=1;" parent="WIyWlLk6GJQsqaUBKTNV-1" vertex="1">
          <mxGeometry x="-170" y="-200" width="300" height="210" as="geometry" />
        </mxCell>
        <mxCell id="wQyM_oGxPqQlltokziNy-14" value="&lt;meta charset=&quot;utf-8&quot;&gt;&lt;b style=&quot;font-weight: normal&quot; id=&quot;docs-internal-guid-bedba71c-7fff-d6dd-562c-5a7681b5bbfd&quot;&gt;&amp;nbsp;&lt;table style=&quot;border: none ; border-collapse: collapse&quot;&gt;&lt;colgroup&gt;&lt;col width=&quot;254px&quot;&gt;&lt;/colgroup&gt;&lt;tbody&gt;&lt;tr style=&quot;height: 63px&quot;&gt;&lt;td style=&quot;background-color: #ead1dc ; opacity: 1 ; filter: alpha(opacity = 100) ; vertical-align: top ; border-left: solid #000000 1.330708661417323px ; border-right: solid #000000 1.330708661417323px ; border-top: solid #000000 1.330708661417323px ; border-bottom: solid #000000 1.330708661417323px ; padding-top: 10px ; padding-right: 7px ; padding-bottom: 10px ; padding-left: 7px&quot;&gt;&lt;p dir=&quot;ltr&quot; style=&quot;line-height: 1.2 ; text-align: center ; margin-top: 0pt ; margin-bottom: 0pt&quot;&gt;&lt;span style=&quot;font-size: 16pt; font-family: &amp;quot;times new roman&amp;quot;; color: rgb(0, 0, 0); background-color: transparent; font-weight: 700; font-style: normal; font-variant: normal; text-decoration: none; vertical-align: baseline;&quot;&gt;&amp;lt;&amp;lt;boundary&amp;gt;&amp;gt;&lt;/span&gt;&lt;/p&gt;&lt;p dir=&quot;ltr&quot; style=&quot;line-height: 1.2 ; text-align: center ; margin-top: 0pt ; margin-bottom: 0pt&quot;&gt;&lt;span style=&quot;font-size: 16pt; font-family: &amp;quot;times new roman&amp;quot;; color: rgb(0, 0, 0); background-color: transparent; font-weight: 700; font-style: normal; font-variant: normal; text-decoration: none; vertical-align: baseline;&quot;&gt;DataBaseConnection&lt;/span&gt;&lt;/p&gt;&lt;/td&gt;&lt;/tr&gt;&lt;tr style=&quot;height: 43px&quot;&gt;&lt;td style=&quot;vertical-align: top ; border-left: solid #000000 1.330708661417323px ; border-right: solid #000000 1.330708661417323px ; border-top: solid #000000 1.330708661417323px ; border-bottom: solid #000000 1.330708661417323px ; padding-top: 10px ; padding-right: 7px ; padding-bottom: 10px ; padding-left: 7px&quot;&gt;&amp;nbsp;&lt;/td&gt;&lt;/tr&gt;&lt;tr style=&quot;height: 45px&quot;&gt;&lt;td style=&quot;vertical-align: top ; border-left: solid #000000 1.330708661417323px ; border-right: solid #000000 1.330708661417323px ; border-top: solid #000000 1.330708661417323px ; border-bottom: solid #000000 1.330708661417323px ; padding-top: 10px ; padding-right: 7px ; padding-bottom: 10px ; padding-left: 7px&quot;&gt;&lt;p dir=&quot;ltr&quot; style=&quot;line-height: 1.2 ; margin-top: 0pt ; margin-bottom: 0pt&quot;&gt;&lt;span style=&quot;font-size: 14pt; font-family: &amp;quot;times new roman&amp;quot;; color: rgb(0, 0, 0); background-color: transparent; font-weight: 400; font-style: normal; font-variant: normal; text-decoration: none; vertical-align: baseline;&quot;&gt;+getConnection()&lt;/span&gt;&lt;/p&gt;&lt;/td&gt;&lt;/tr&gt;&lt;/tbody&gt;&lt;/table&gt;&lt;/b&gt;" style="text;whiteSpace=wrap;html=1;" parent="WIyWlLk6GJQsqaUBKTNV-1" vertex="1">
          <mxGeometry x="-15" y="-860" width="280" height="190" as="geometry" />
        </mxCell>
        <mxCell id="wQyM_oGxPqQlltokziNy-15" value="&lt;meta charset=&quot;utf-8&quot;&gt;&lt;b style=&quot;font-weight: normal&quot; id=&quot;docs-internal-guid-eeaa8faa-7fff-1150-b196-6be68a389c80&quot;&gt;&amp;nbsp;&lt;table style=&quot;border: none ; border-collapse: collapse&quot;&gt;&lt;colgroup&gt;&lt;col width=&quot;213px&quot;&gt;&lt;/colgroup&gt;&lt;tbody&gt;&lt;tr style=&quot;height: 57px&quot;&gt;&lt;td style=&quot;background-color: #c8d9f9 ; opacity: 1 ; filter: alpha(opacity = 100) ; vertical-align: top ; border-left: solid #000000 1.330708661417323px ; border-right: solid #000000 1.330708661417323px ; border-top: solid #000000 1.330708661417323px ; border-bottom: solid #000000 1.330708661417323px ; padding-top: 10px ; padding-right: 7px ; padding-bottom: 10px ; padding-left: 7px&quot;&gt;&lt;p dir=&quot;ltr&quot; style=&quot;line-height: 1.2 ; text-align: center ; margin-top: 0pt ; margin-bottom: 0pt&quot;&gt;&lt;span style=&quot;font-size: 16pt; font-family: &amp;quot;times new roman&amp;quot;; color: rgb(0, 0, 0); background-color: transparent; font-weight: 700; font-style: normal; font-variant: normal; text-decoration: none; vertical-align: baseline;&quot;&gt;&amp;lt;&amp;lt;entity&amp;gt;&amp;gt;&lt;/span&gt;&lt;span style=&quot;font-size: 16pt; font-family: &amp;quot;times new roman&amp;quot;; color: rgb(0, 0, 0); background-color: transparent; font-weight: 700; font-style: normal; font-variant: normal; text-decoration: none; vertical-align: baseline;&quot;&gt;&lt;br&gt;&lt;/span&gt;&lt;span style=&quot;font-size: 16pt; font-family: &amp;quot;times new roman&amp;quot;; color: rgb(0, 0, 0); background-color: transparent; font-weight: 700; font-style: normal; font-variant: normal; text-decoration: none; vertical-align: baseline;&quot;&gt;Report&lt;/span&gt;&lt;/p&gt;&lt;/td&gt;&lt;/tr&gt;&lt;tr style=&quot;height: 130px&quot;&gt;&lt;td style=&quot;vertical-align: top ; border-left: solid #000000 1.330708661417323px ; border-right: solid #000000 1.330708661417323px ; border-top: solid #000000 1.330708661417323px ; border-bottom: solid #000000 1.330708661417323px ; padding-top: 10px ; padding-right: 7px ; padding-bottom: 10px ; padding-left: 7px&quot;&gt;&lt;p dir=&quot;ltr&quot; style=&quot;line-height: 1.2 ; margin-top: 0pt ; margin-bottom: 0pt&quot;&gt;&lt;span style=&quot;font-size: 14pt; font-family: &amp;quot;times new roman&amp;quot;; color: rgb(0, 0, 0); background-color: transparent; font-weight: 400; font-style: normal; font-variant: normal; text-decoration: none; vertical-align: baseline;&quot;&gt;-reportid: Int&lt;/span&gt;&lt;/p&gt;&lt;p dir=&quot;ltr&quot; style=&quot;line-height: 1.2 ; margin-top: 0pt ; margin-bottom: 0pt&quot;&gt;&lt;span style=&quot;font-size: 14pt; font-family: &amp;quot;times new roman&amp;quot;; color: rgb(0, 0, 0); background-color: transparent; font-weight: 400; font-style: normal; font-variant: normal; text-decoration: none; vertical-align: baseline;&quot;&gt;-reporterid: Int&lt;/span&gt;&lt;/p&gt;&lt;p dir=&quot;ltr&quot; style=&quot;line-height: 1.2 ; margin-top: 0pt ; margin-bottom: 0pt&quot;&gt;&lt;span style=&quot;font-size: 14pt; font-family: &amp;quot;times new roman&amp;quot;; color: rgb(0, 0, 0); background-color: transparent; font-weight: 400; font-style: normal; font-variant: normal; text-decoration: none; vertical-align: baseline;&quot;&gt;-reportedid: Int&lt;/span&gt;&lt;/p&gt;&lt;p dir=&quot;ltr&quot; style=&quot;line-height: 1.2 ; margin-top: 0pt ; margin-bottom: 0pt&quot;&gt;&lt;span style=&quot;font-size: 14pt; font-family: &amp;quot;times new roman&amp;quot;; color: rgb(0, 0, 0); background-color: transparent; font-weight: 400; font-style: normal; font-variant: normal; text-decoration: none; vertical-align: baseline;&quot;&gt;-category: String&lt;/span&gt;&lt;/p&gt;&lt;p dir=&quot;ltr&quot; style=&quot;line-height: 1.2 ; margin-top: 0pt ; margin-bottom: 0pt&quot;&gt;&lt;span style=&quot;font-size: 14pt; font-family: &amp;quot;times new roman&amp;quot;; color: rgb(0, 0, 0); background-color: transparent; font-weight: 400; font-style: normal; font-variant: normal; text-decoration: none; vertical-align: baseline;&quot;&gt;-content: String&lt;/span&gt;&lt;/p&gt;&lt;p dir=&quot;ltr&quot; style=&quot;line-height: 1.2 ; margin-top: 0pt ; margin-bottom: 0pt&quot;&gt;&lt;span style=&quot;font-size: 14pt; font-family: &amp;quot;times new roman&amp;quot;; color: rgb(0, 0, 0); background-color: transparent; font-weight: 400; font-style: normal; font-variant: normal; text-decoration: none; vertical-align: baseline;&quot;&gt;-dateCreated: String&lt;/span&gt;&lt;/p&gt;&lt;p dir=&quot;ltr&quot; style=&quot;line-height: 1.2 ; margin-top: 0pt ; margin-bottom: 0pt&quot;&gt;&lt;span style=&quot;font-size: 14pt; font-family: &amp;quot;times new roman&amp;quot;; color: rgb(0, 0, 0); background-color: transparent; font-weight: 400; font-style: normal; font-variant: normal; text-decoration: none; vertical-align: baseline;&quot;&gt;-response: String&lt;/span&gt;&lt;/p&gt;&lt;/td&gt;&lt;/tr&gt;&lt;tr style=&quot;height: 42px&quot;&gt;&lt;td style=&quot;vertical-align: top ; border-left: solid #000000 1.330708661417323px ; border-right: solid #000000 1.330708661417323px ; border-top: solid #000000 1.330708661417323px ; border-bottom: solid #000000 1.330708661417323px ; padding-top: 10px ; padding-right: 7px ; padding-bottom: 10px ; padding-left: 7px&quot;&gt;&lt;p dir=&quot;ltr&quot; style=&quot;line-height: 1.2 ; margin-top: 0pt ; margin-bottom: 0pt&quot;&gt;&lt;span style=&quot;font-size: 14pt; font-family: &amp;quot;times new roman&amp;quot;; color: rgb(0, 0, 0); background-color: transparent; font-weight: 400; font-style: normal; font-variant: normal; text-decoration: none; vertical-align: baseline;&quot;&gt;+addResponse(String)&lt;/span&gt;&lt;/p&gt;&lt;/td&gt;&lt;/tr&gt;&lt;/tbody&gt;&lt;/table&gt;&lt;/b&gt;" style="text;whiteSpace=wrap;html=1;" parent="WIyWlLk6GJQsqaUBKTNV-1" vertex="1">
          <mxGeometry x="-270" y="40" width="220" height="310" as="geometry" />
        </mxCell>
        <mxCell id="wQyM_oGxPqQlltokziNy-16" value="&lt;meta charset=&quot;utf-8&quot;&gt;&lt;b style=&quot;font-weight: normal&quot; id=&quot;docs-internal-guid-f6aa3df3-7fff-0ad1-ffc3-a95e212908cb&quot;&gt;&amp;nbsp;&lt;table style=&quot;border: none ; border-collapse: collapse&quot;&gt;&lt;colgroup&gt;&lt;col width=&quot;289px&quot;&gt;&lt;/colgroup&gt;&lt;tbody&gt;&lt;tr style=&quot;height: 68px&quot;&gt;&lt;td style=&quot;background-color: #d9ead3 ; opacity: 1 ; filter: alpha(opacity = 100) ; vertical-align: top ; border-left: solid #000000 1.330708661417323px ; border-right: solid #000000 1.330708661417323px ; border-top: solid #000000 1.330708661417323px ; border-bottom: solid #000000 1.330708661417323px ; padding-top: 10px ; padding-right: 7px ; padding-bottom: 10px ; padding-left: 7px&quot;&gt;&lt;p dir=&quot;ltr&quot; style=&quot;line-height: 1.2 ; text-align: center ; margin-top: 0pt ; margin-bottom: 0pt&quot;&gt;&lt;span style=&quot;font-size: 16pt; font-family: &amp;quot;times new roman&amp;quot;; color: rgb(0, 0, 0); background-color: transparent; font-weight: 700; font-style: normal; font-variant: normal; text-decoration: none; vertical-align: baseline;&quot;&gt;&amp;lt;&amp;lt;control&amp;gt;&amp;gt;&lt;/span&gt;&lt;/p&gt;&lt;p dir=&quot;ltr&quot; style=&quot;line-height: 1.2 ; text-align: center ; margin-top: 0pt ; margin-bottom: 0pt&quot;&gt;&lt;span style=&quot;font-size: 16pt; font-family: &amp;quot;times new roman&amp;quot;; color: rgb(0, 0, 0); background-color: transparent; font-weight: 700; font-style: normal; font-variant: normal; text-decoration: none; vertical-align: baseline;&quot;&gt;ServiceManager&lt;/span&gt;&lt;/p&gt;&lt;/td&gt;&lt;/tr&gt;&lt;tr style=&quot;height: 40px&quot;&gt;&lt;td style=&quot;vertical-align: top ; border-left: solid #000000 1.330708661417323px ; border-right: solid #000000 1.330708661417323px ; border-top: solid #000000 1.330708661417323px ; border-bottom: solid #000000 1.330708661417323px ; padding-top: 10px ; padding-right: 7px ; padding-bottom: 10px ; padding-left: 7px&quot;&gt;&lt;p dir=&quot;ltr&quot; style=&quot;line-height: 1.2 ; margin-top: 0pt ; margin-bottom: 0pt&quot;&gt;&lt;span style=&quot;font-size: 14pt; font-family: &amp;quot;times new roman&amp;quot;; color: rgb(0, 0, 0); background-color: transparent; font-weight: 400; font-style: normal; font-variant: normal; text-decoration: none; vertical-align: baseline;&quot;&gt;-database: db: DataBaseManager&lt;/span&gt;&lt;/p&gt;&lt;/td&gt;&lt;/tr&gt;&lt;tr style=&quot;height: 133px&quot;&gt;&lt;td style=&quot;vertical-align: top ; border-left: solid #000000 1.330708661417323px ; border-right: solid #000000 1.330708661417323px ; border-top: solid #000000 1.330708661417323px ; border-bottom: solid #000000 1.330708661417323px ; padding-top: 10px ; padding-right: 7px ; padding-bottom: 10px ; padding-left: 7px&quot;&gt;&lt;p dir=&quot;ltr&quot; style=&quot;line-height: 1.2 ; margin-top: 0pt ; margin-bottom: 0pt&quot;&gt;&lt;span style=&quot;font-size: 14pt; font-family: &amp;quot;times new roman&amp;quot;; color: rgb(0, 0, 0); background-color: transparent; font-weight: 400; font-style: normal; font-variant: normal; text-decoration: none; vertical-align: baseline;&quot;&gt;+createAdvertisement()&lt;/span&gt;&lt;/p&gt;&lt;p dir=&quot;ltr&quot; style=&quot;line-height: 1.2 ; margin-top: 0pt ; margin-bottom: 0pt&quot;&gt;&lt;span style=&quot;font-size: 14pt; font-family: &amp;quot;times new roman&amp;quot;; color: rgb(0, 0, 0); background-color: transparent; font-weight: 400; font-style: normal; font-variant: normal; text-decoration: none; vertical-align: baseline;&quot;&gt;+deleteAdvertisement()&lt;/span&gt;&lt;/p&gt;&lt;p dir=&quot;ltr&quot; style=&quot;line-height: 1.2 ; margin-top: 0pt ; margin-bottom: 0pt&quot;&gt;&lt;span style=&quot;font-size: 14pt; font-family: &amp;quot;times new roman&amp;quot;; color: rgb(0, 0, 0); background-color: transparent; font-weight: 400; font-style: normal; font-variant: normal; text-decoration: none; vertical-align: baseline;&quot;&gt;+createBooking()&amp;nbsp;&lt;/span&gt;&lt;/p&gt;&lt;p dir=&quot;ltr&quot; style=&quot;line-height: 1.2 ; margin-top: 0pt ; margin-bottom: 0pt&quot;&gt;&lt;span style=&quot;font-size: 14pt; font-family: &amp;quot;times new roman&amp;quot;; color: rgb(0, 0, 0); background-color: transparent; font-weight: 400; font-style: normal; font-variant: normal; text-decoration: none; vertical-align: baseline;&quot;&gt;+deleteBooking()&lt;/span&gt;&lt;/p&gt;&lt;/td&gt;&lt;/tr&gt;&lt;/tbody&gt;&lt;/table&gt;&lt;/b&gt;" style="text;whiteSpace=wrap;html=1;" parent="WIyWlLk6GJQsqaUBKTNV-1" vertex="1">
          <mxGeometry x="670" y="-220" width="276" height="186" as="geometry" />
        </mxCell>
        <mxCell id="wQyM_oGxPqQlltokziNy-17" value="&lt;meta charset=&quot;utf-8&quot;&gt;&lt;b style=&quot;font-weight: normal&quot; id=&quot;docs-internal-guid-b50c22cc-7fff-61aa-d38b-98a790ab649e&quot;&gt;&amp;nbsp;&lt;table style=&quot;border: none ; border-collapse: collapse&quot;&gt;&lt;colgroup&gt;&lt;col width=&quot;176px&quot;&gt;&lt;/colgroup&gt;&lt;tbody&gt;&lt;tr style=&quot;height: 69px&quot;&gt;&lt;td style=&quot;background-color: #c8d9f9 ; opacity: 1 ; filter: alpha(opacity = 100) ; vertical-align: top ; border-left: solid #000000 1.330708661417323px ; border-right: solid #000000 1.330708661417323px ; border-top: solid #000000 1.330708661417323px ; border-bottom: solid #000000 1.330708661417323px ; padding-top: 9px ; padding-right: 6px ; padding-bottom: 9px ; padding-left: 6px&quot;&gt;&lt;p dir=&quot;ltr&quot; style=&quot;line-height: 1.2 ; text-align: center ; margin-top: 0pt ; margin-bottom: 0pt&quot;&gt;&lt;span style=&quot;font-size: 16pt; font-family: &amp;quot;times new roman&amp;quot;; color: rgb(0, 0, 0); background-color: transparent; font-weight: 700; font-style: normal; font-variant: normal; text-decoration: none; vertical-align: baseline;&quot;&gt;&amp;lt;&amp;lt;entity&amp;gt;&amp;gt;&lt;/span&gt;&lt;/p&gt;&lt;p dir=&quot;ltr&quot; style=&quot;line-height: 1.2 ; text-align: center ; margin-top: 0pt ; margin-bottom: 0pt&quot;&gt;&lt;span style=&quot;font-size: 16pt; font-family: &amp;quot;times new roman&amp;quot;; color: rgb(0, 0, 0); background-color: transparent; font-weight: 700; font-style: italic; font-variant: normal; text-decoration: none; vertical-align: baseline;&quot;&gt;Advertisement&lt;/span&gt;&lt;/p&gt;&lt;/td&gt;&lt;/tr&gt;&lt;tr style=&quot;height: 233px&quot;&gt;&lt;td style=&quot;vertical-align: top ; border-left: solid #000000 1.330708661417323px ; border-right: solid #000000 1.330708661417323px ; border-top: solid #000000 1.330708661417323px ; border-bottom: solid #000000 1.330708661417323px ; padding-top: 9px ; padding-right: 6px ; padding-bottom: 9px ; padding-left: 6px&quot;&gt;&lt;p dir=&quot;ltr&quot; style=&quot;line-height: 1.2 ; margin-top: 0pt ; margin-bottom: 0pt&quot;&gt;&lt;span style=&quot;font-size: 14pt; font-family: &amp;quot;times new roman&amp;quot;; color: rgb(0, 0, 0); background-color: transparent; font-weight: 400; font-style: italic; font-variant: normal; text-decoration: none; vertical-align: baseline;&quot;&gt;-autourId&lt;/span&gt;&lt;/p&gt;&lt;p dir=&quot;ltr&quot; style=&quot;line-height: 1.2 ; margin-top: 0pt ; margin-bottom: 0pt&quot;&gt;&lt;span style=&quot;font-size: 14pt; font-family: &amp;quot;times new roman&amp;quot;; color: rgb(0, 0, 0); background-color: transparent; font-weight: 400; font-style: normal; font-variant: normal; text-decoration: none; vertical-align: baseline;&quot;&gt;Title&lt;/span&gt;&lt;/p&gt;&lt;p dir=&quot;ltr&quot; style=&quot;line-height: 1.2 ; margin-top: 0pt ; margin-bottom: 0pt&quot;&gt;&lt;span style=&quot;font-size: 14pt; font-family: &amp;quot;times new roman&amp;quot;; color: rgb(0, 0, 0); background-color: transparent; font-weight: 400; font-style: normal; font-variant: normal; text-decoration: none; vertical-align: baseline;&quot;&gt;Description&lt;/span&gt;&lt;/p&gt;&lt;p dir=&quot;ltr&quot; style=&quot;line-height: 1.2 ; margin-top: 0pt ; margin-bottom: 0pt&quot;&gt;&lt;span style=&quot;font-size: 14pt; font-family: &amp;quot;times new roman&amp;quot;; color: rgb(0, 0, 0); background-color: transparent; font-weight: 400; font-style: normal; font-variant: normal; text-decoration: none; vertical-align: baseline;&quot;&gt;Date Created&lt;/span&gt;&lt;/p&gt;&lt;p dir=&quot;ltr&quot; style=&quot;line-height: 1.2 ; margin-top: 0pt ; margin-bottom: 0pt&quot;&gt;&lt;span style=&quot;font-size: 14pt; font-family: &amp;quot;times new roman&amp;quot;; color: rgb(0, 0, 0); background-color: transparent; font-weight: 400; font-style: italic; font-variant: normal; text-decoration: none; vertical-align: baseline;&quot;&gt;Expiry Date&lt;/span&gt;&lt;/p&gt;&lt;p dir=&quot;ltr&quot; style=&quot;line-height: 1.2 ; margin-top: 0pt ; margin-bottom: 0pt&quot;&gt;&lt;span style=&quot;font-size: 14pt; font-family: &amp;quot;times new roman&amp;quot;; color: rgb(0, 0, 0); background-color: transparent; font-weight: 400; font-style: normal; font-variant: normal; text-decoration: none; vertical-align: baseline;&quot;&gt;Service Type&lt;/span&gt;&lt;/p&gt;&lt;p dir=&quot;ltr&quot; style=&quot;line-height: 1.2 ; margin-top: 0pt ; margin-bottom: 0pt&quot;&gt;&lt;span style=&quot;font-size: 14pt; font-family: &amp;quot;times new roman&amp;quot;; color: rgb(0, 0, 0); background-color: transparent; font-weight: 400; font-style: normal; font-variant: normal; text-decoration: none; vertical-align: baseline;&quot;&gt;Service Category&lt;/span&gt;&lt;/p&gt;&lt;p dir=&quot;ltr&quot; style=&quot;line-height: 1.2 ; margin-top: 0pt ; margin-bottom: 0pt&quot;&gt;&lt;span style=&quot;font-size: 14pt; font-family: &amp;quot;times new roman&amp;quot;; color: rgb(0, 0, 0); background-color: transparent; font-weight: 400; font-style: italic; font-variant: normal; text-decoration: none; vertical-align: baseline;&quot;&gt;Candidates&lt;/span&gt;&lt;/p&gt;&lt;p dir=&quot;ltr&quot; style=&quot;line-height: 1.2 ; margin-top: 0pt ; margin-bottom: 0pt&quot;&gt;&lt;span style=&quot;font-size: 14pt; font-family: &amp;quot;times new roman&amp;quot;; color: rgb(0, 0, 0); background-color: transparent; font-weight: 400; font-style: italic; font-variant: normal; text-decoration: none; vertical-align: baseline;&quot;&gt;Urgency&lt;/span&gt;&lt;/p&gt;&lt;/td&gt;&lt;/tr&gt;&lt;tr style=&quot;height: 48px&quot;&gt;&lt;td style=&quot;vertical-align: top ; border-left: solid #000000 1.330708661417323px ; border-right: solid #000000 1.330708661417323px ; border-top: solid #000000 1.330708661417323px ; border-bottom: solid #000000 1.330708661417323px ; padding-top: 9px ; padding-right: 6px ; padding-bottom: 9px ; padding-left: 6px&quot;&gt;&lt;p dir=&quot;ltr&quot; style=&quot;line-height: 1.2 ; margin-top: 0pt ; margin-bottom: 0pt&quot;&gt;&lt;span style=&quot;font-size: 14pt; font-family: arial; color: rgb(0, 0, 0); background-color: transparent; font-weight: 400; font-style: italic; font-variant: normal; text-decoration: none; vertical-align: baseline;&quot;&gt;+addCandidate()&lt;/span&gt;&lt;/p&gt;&lt;/td&gt;&lt;/tr&gt;&lt;/tbody&gt;&lt;/table&gt;&lt;/b&gt;" style="text;whiteSpace=wrap;html=1;" parent="WIyWlLk6GJQsqaUBKTNV-1" vertex="1">
          <mxGeometry x="610" y="430" width="180" height="380" as="geometry" />
        </mxCell>
        <mxCell id="wQyM_oGxPqQlltokziNy-18" value="&lt;meta charset=&quot;utf-8&quot;&gt;&lt;b style=&quot;font-weight: normal&quot; id=&quot;docs-internal-guid-ad61a450-7fff-7811-01c8-2ee6b735bf02&quot;&gt;&amp;nbsp;&lt;table style=&quot;border: none ; border-collapse: collapse&quot;&gt;&lt;colgroup&gt;&lt;col width=&quot;176px&quot;&gt;&lt;/colgroup&gt;&lt;tbody&gt;&lt;tr style=&quot;height: 62px&quot;&gt;&lt;td style=&quot;background-color: #c8d9f9 ; opacity: 1 ; filter: alpha(opacity = 100) ; vertical-align: top ; border-left: solid #000000 1.330708661417323px ; border-right: solid #000000 1.330708661417323px ; border-top: solid #000000 1.330708661417323px ; border-bottom: solid #000000 1.330708661417323px ; padding-top: 10px ; padding-right: 7px ; padding-bottom: 10px ; padding-left: 7px&quot;&gt;&lt;p dir=&quot;ltr&quot; style=&quot;line-height: 1.2 ; text-align: center ; margin-top: 0pt ; margin-bottom: 0pt&quot;&gt;&lt;span style=&quot;font-size: 16pt; font-family: &amp;quot;times new roman&amp;quot;; color: rgb(0, 0, 0); background-color: transparent; font-weight: 700; font-style: normal; font-variant: normal; text-decoration: none; vertical-align: baseline;&quot;&gt;&amp;lt;&amp;lt;entity&amp;gt;&amp;gt;&lt;/span&gt;&lt;/p&gt;&lt;p dir=&quot;ltr&quot; style=&quot;line-height: 1.2 ; text-align: center ; margin-top: 0pt ; margin-bottom: 0pt&quot;&gt;&lt;span style=&quot;font-size: 16pt; font-family: &amp;quot;times new roman&amp;quot;; color: rgb(0, 0, 0); background-color: transparent; font-weight: 700; font-style: normal; font-variant: normal; text-decoration: none; vertical-align: baseline;&quot;&gt;Booking&amp;nbsp;&lt;/span&gt;&lt;/p&gt;&lt;/td&gt;&lt;/tr&gt;&lt;tr style=&quot;height: 110px&quot;&gt;&lt;td style=&quot;vertical-align: top ; border-left: solid #000000 1.330708661417323px ; border-right: solid #000000 1.330708661417323px ; border-top: solid #000000 1.330708661417323px ; border-bottom: solid #000000 1.330708661417323px ; padding-top: 10px ; padding-right: 7px ; padding-bottom: 10px ; padding-left: 7px&quot;&gt;&lt;p dir=&quot;ltr&quot; style=&quot;line-height: 1.2 ; margin-top: 0pt ; margin-bottom: 0pt&quot;&gt;&lt;span style=&quot;font-size: 14pt; font-family: &amp;quot;times new roman&amp;quot;; color: rgb(0, 0, 0); background-color: transparent; font-weight: 400; font-style: normal; font-variant: normal; text-decoration: none; vertical-align: baseline;&quot;&gt;-requesterid: Int&lt;/span&gt;&lt;/p&gt;&lt;p dir=&quot;ltr&quot; style=&quot;line-height: 1.2 ; margin-top: 0pt ; margin-bottom: 0pt&quot;&gt;&lt;span style=&quot;font-size: 14pt; font-family: &amp;quot;times new roman&amp;quot;; color: rgb(0, 0, 0); background-color: transparent; font-weight: 400; font-style: normal; font-variant: normal; text-decoration: none; vertical-align: baseline;&quot;&gt;-offerorid: Int&lt;/span&gt;&lt;/p&gt;&lt;p dir=&quot;ltr&quot; style=&quot;line-height: 1.2 ; margin-top: 0pt ; margin-bottom: 0pt&quot;&gt;&lt;span style=&quot;font-size: 14pt; font-family: &amp;quot;times new roman&amp;quot;; color: rgb(0, 0, 0); background-color: transparent; font-weight: 400; font-style: normal; font-variant: normal; text-decoration: none; vertical-align: baseline;&quot;&gt;-completed: Bool&lt;/span&gt;&lt;/p&gt;&lt;p dir=&quot;ltr&quot; style=&quot;line-height: 1.2 ; margin-top: 0pt ; margin-bottom: 0pt&quot;&gt;&lt;span style=&quot;font-size: 14pt; font-family: &amp;quot;times new roman&amp;quot;; color: rgb(0, 0, 0); background-color: transparent; font-weight: 400; font-style: normal; font-variant: normal; text-decoration: none; vertical-align: baseline;&quot;&gt;-reviews: r:Review[]&lt;/span&gt;&lt;/p&gt;&lt;/td&gt;&lt;/tr&gt;&lt;tr style=&quot;height: 75px&quot;&gt;&lt;td style=&quot;vertical-align: top ; border-left: solid #000000 1.330708661417323px ; border-right: solid #000000 1.330708661417323px ; border-top: solid #000000 1.330708661417323px ; border-bottom: solid #000000 1.330708661417323px ; padding-top: 10px ; padding-right: 7px ; padding-bottom: 10px ; padding-left: 7px&quot;&gt;&lt;p dir=&quot;ltr&quot; style=&quot;line-height: 1.2 ; margin-top: 0pt ; margin-bottom: 0pt&quot;&gt;&lt;span style=&quot;font-size: 14pt; font-family: &amp;quot;times new roman&amp;quot;; color: rgb(0, 0, 0); background-color: transparent; font-weight: 400; font-style: normal; font-variant: normal; text-decoration: none; vertical-align: baseline;&quot;&gt;-bookingComplete()&lt;/span&gt;&lt;/p&gt;&lt;p dir=&quot;ltr&quot; style=&quot;line-height: 1.2 ; margin-top: 0pt ; margin-bottom: 0pt&quot;&gt;&lt;span style=&quot;font-size: 14pt; font-family: &amp;quot;times new roman&amp;quot;; color: rgb(0, 0, 0); background-color: transparent; font-weight: 400; font-style: normal; font-variant: normal; text-decoration: none; vertical-align: baseline;&quot;&gt;-addReview()&lt;/span&gt;&lt;/p&gt;&lt;p dir=&quot;ltr&quot; style=&quot;line-height: 1.2 ; margin-top: 0pt ; margin-bottom: 0pt&quot;&gt;&lt;span style=&quot;font-size: 14pt; font-family: &amp;quot;times new roman&amp;quot;; color: rgb(0, 0, 0); background-color: transparent; font-weight: 400; font-style: normal; font-variant: normal; text-decoration: none; vertical-align: baseline;&quot;&gt;-deleteReview()&lt;/span&gt;&lt;/p&gt;&lt;/td&gt;&lt;/tr&gt;&lt;/tbody&gt;&lt;/table&gt;&lt;/b&gt;" style="text;whiteSpace=wrap;html=1;" parent="WIyWlLk6GJQsqaUBKTNV-1" vertex="1">
          <mxGeometry x="1080" y="737" width="200" height="300" as="geometry" />
        </mxCell>
        <mxCell id="wQyM_oGxPqQlltokziNy-19" value="&lt;meta charset=&quot;utf-8&quot;&gt;&lt;b style=&quot;font-weight: normal&quot; id=&quot;docs-internal-guid-44657c9e-7fff-92be-0d07-047a5156006f&quot;&gt;&amp;nbsp;&lt;table style=&quot;border: none ; border-collapse: collapse&quot;&gt;&lt;colgroup&gt;&lt;col width=&quot;138px&quot;&gt;&lt;/colgroup&gt;&lt;tbody&gt;&lt;tr style=&quot;height: 65px&quot;&gt;&lt;td style=&quot;background-color: #c8d9f9 ; opacity: 1 ; filter: alpha(opacity = 100) ; vertical-align: top ; border-left: solid #000000 1.330708661417323px ; border-right: solid #000000 1.330708661417323px ; border-top: solid #000000 1.330708661417323px ; border-bottom: solid #000000 1.330708661417323px ; padding-top: 10px ; padding-right: 7px ; padding-bottom: 10px ; padding-left: 7px&quot;&gt;&lt;p dir=&quot;ltr&quot; style=&quot;line-height: 1.2 ; text-align: center ; margin-top: 0pt ; margin-bottom: 0pt&quot;&gt;&lt;span style=&quot;font-size: 16pt; font-family: &amp;quot;times new roman&amp;quot;; color: rgb(0, 0, 0); background-color: transparent; font-weight: 700; font-style: normal; font-variant: normal; text-decoration: none; vertical-align: baseline;&quot;&gt;&amp;lt;&amp;lt;entity&amp;gt;&amp;gt;&lt;/span&gt;&lt;/p&gt;&lt;p dir=&quot;ltr&quot; style=&quot;line-height: 1.2 ; text-align: center ; margin-top: 0pt ; margin-bottom: 0pt&quot;&gt;&lt;span style=&quot;font-size: 16pt; font-family: &amp;quot;times new roman&amp;quot;; color: rgb(0, 0, 0); background-color: transparent; font-weight: 700; font-style: normal; font-variant: normal; text-decoration: none; vertical-align: baseline;&quot;&gt;Review&lt;/span&gt;&lt;/p&gt;&lt;/td&gt;&lt;/tr&gt;&lt;tr style=&quot;height: 102px&quot;&gt;&lt;td style=&quot;vertical-align: top ; border-left: solid #000000 1.330708661417323px ; border-right: solid #000000 1.330708661417323px ; border-top: solid #000000 1.330708661417323px ; border-bottom: solid #000000 1.330708661417323px ; padding-top: 10px ; padding-right: 7px ; padding-bottom: 10px ; padding-left: 7px&quot;&gt;&lt;p dir=&quot;ltr&quot; style=&quot;line-height: 1.2 ; margin-top: 0pt ; margin-bottom: 0pt&quot;&gt;&lt;span style=&quot;font-size: 14pt; font-family: &amp;quot;times new roman&amp;quot;; color: rgb(0, 0, 0); background-color: transparent; font-weight: 400; font-style: normal; font-variant: normal; text-decoration: none; vertical-align: baseline;&quot;&gt;Stars&lt;/span&gt;&lt;/p&gt;&lt;p dir=&quot;ltr&quot; style=&quot;line-height: 1.2 ; margin-top: 0pt ; margin-bottom: 0pt&quot;&gt;&lt;span style=&quot;font-size: 14pt; font-family: &amp;quot;times new roman&amp;quot;; color: rgb(0, 0, 0); background-color: transparent; font-weight: 400; font-style: normal; font-variant: normal; text-decoration: none; vertical-align: baseline;&quot;&gt;Tags&lt;/span&gt;&lt;/p&gt;&lt;p dir=&quot;ltr&quot; style=&quot;line-height: 1.2 ; margin-top: 0pt ; margin-bottom: 0pt&quot;&gt;&lt;span style=&quot;font-size: 14pt; font-family: &amp;quot;times new roman&amp;quot;; color: rgb(0, 0, 0); background-color: transparent; font-weight: 400; font-style: normal; font-variant: normal; text-decoration: none; vertical-align: baseline;&quot;&gt;Comment&lt;/span&gt;&lt;/p&gt;&lt;p dir=&quot;ltr&quot; style=&quot;line-height: 1.2 ; margin-top: 0pt ; margin-bottom: 0pt&quot;&gt;&lt;span style=&quot;font-size: 14pt; font-family: &amp;quot;times new roman&amp;quot;; color: rgb(0, 0, 0); background-color: transparent; font-weight: 400; font-style: normal; font-variant: normal; text-decoration: none; vertical-align: baseline;&quot;&gt;Tip&lt;/span&gt;&lt;/p&gt;&lt;/td&gt;&lt;/tr&gt;&lt;tr style=&quot;height: 39px&quot;&gt;&lt;td style=&quot;vertical-align: top ; border-left: solid #000000 1.330708661417323px ; border-right: solid #000000 1.330708661417323px ; border-top: solid #000000 1.330708661417323px ; border-bottom: solid #000000 1.330708661417323px ; padding-top: 10px ; padding-right: 7px ; padding-bottom: 10px ; padding-left: 7px&quot;&gt;&amp;nbsp;&lt;/td&gt;&lt;/tr&gt;&lt;/tbody&gt;&lt;/table&gt;&lt;/b&gt;" style="text;whiteSpace=wrap;html=1;" parent="WIyWlLk6GJQsqaUBKTNV-1" vertex="1">
          <mxGeometry x="720" y="840" width="140" height="240" as="geometry" />
        </mxCell>
        <mxCell id="wQyM_oGxPqQlltokziNy-20" value="&lt;meta charset=&quot;utf-8&quot;&gt;&lt;b style=&quot;font-weight: normal&quot; id=&quot;docs-internal-guid-3f6ffa58-7fff-a443-3d1d-f2ae6805a432&quot;&gt;&amp;nbsp;&lt;table style=&quot;border: none ; border-collapse: collapse&quot;&gt;&lt;colgroup&gt;&lt;col width=&quot;240px&quot;&gt;&lt;/colgroup&gt;&lt;tbody&gt;&lt;tr style=&quot;height: 62px&quot;&gt;&lt;td style=&quot;background-color: #ead1dc ; opacity: 1 ; filter: alpha(opacity = 100) ; vertical-align: top ; border-left: solid #000000 1.330708661417323px ; border-right: solid #000000 1.330708661417323px ; border-top: solid #000000 1.330708661417323px ; border-bottom: solid #000000 1.330708661417323px ; padding-top: 10px ; padding-right: 7px ; padding-bottom: 10px ; padding-left: 7px&quot;&gt;&lt;p dir=&quot;ltr&quot; style=&quot;line-height: 1.2 ; text-align: center ; margin-top: 0pt ; margin-bottom: 0pt&quot;&gt;&lt;span style=&quot;font-size: 16pt; font-family: &amp;quot;times new roman&amp;quot;; color: rgb(0, 0, 0); background-color: transparent; font-weight: 700; font-style: normal; font-variant: normal; text-decoration: none; vertical-align: baseline;&quot;&gt;&amp;lt;&amp;lt;interface&amp;gt;&amp;gt;&lt;/span&gt;&lt;/p&gt;&lt;p dir=&quot;ltr&quot; style=&quot;line-height: 1.2 ; text-align: center ; margin-top: 0pt ; margin-bottom: 0pt&quot;&gt;&lt;span style=&quot;font-size: 16pt; font-family: &amp;quot;times new roman&amp;quot;; color: rgb(0, 0, 0); background-color: transparent; font-weight: 700; font-style: normal; font-variant: normal; text-decoration: none; vertical-align: baseline;&quot;&gt;GUI&lt;/span&gt;&lt;/p&gt;&lt;/td&gt;&lt;/tr&gt;&lt;tr style=&quot;height: 37px&quot;&gt;&lt;td style=&quot;vertical-align: top ; border-left: solid #000000 1.330708661417323px ; border-right: solid #000000 1.330708661417323px ; border-top: solid #000000 1.330708661417323px ; border-bottom: solid #000000 1.330708661417323px ; padding-top: 10px ; padding-right: 7px ; padding-bottom: 10px ; padding-left: 7px&quot;&gt;&lt;p dir=&quot;ltr&quot; style=&quot;line-height: 1.2 ; margin-top: 0pt ; margin-bottom: 0pt&quot;&gt;&lt;span style=&quot;font-size: 14pt; font-family: arial; color: rgb(0, 0, 0); background-color: transparent; font-weight: 400; font-style: normal; font-variant: normal; text-decoration: none; vertical-align: baseline;&quot;&gt;&amp;nbsp;&lt;/span&gt;&lt;/p&gt;&lt;/td&gt;&lt;/tr&gt;&lt;tr style=&quot;height: 51px&quot;&gt;&lt;td style=&quot;vertical-align: top ; border-left: solid #000000 1.330708661417323px ; border-right: solid #000000 1.330708661417323px ; border-top: solid #000000 1.330708661417323px ; border-bottom: solid #000000 1.330708661417323px ; padding-top: 10px ; padding-right: 7px ; padding-bottom: 10px ; padding-left: 7px&quot;&gt;&lt;p dir=&quot;ltr&quot; style=&quot;line-height: 1.2 ; margin-top: 0pt ; margin-bottom: 0pt&quot;&gt;&lt;span style=&quot;font-size: 14pt; font-family: &amp;quot;times new roman&amp;quot;; color: rgb(0, 0, 0); background-color: transparent; font-weight: 400; font-style: normal; font-variant: normal; text-decoration: none; vertical-align: baseline;&quot;&gt;display&lt;/span&gt;&lt;/p&gt;&lt;/td&gt;&lt;/tr&gt;&lt;/tbody&gt;&lt;/table&gt;&lt;/b&gt;" style="text;whiteSpace=wrap;html=1;" parent="WIyWlLk6GJQsqaUBKTNV-1" vertex="1">
          <mxGeometry x="1980" y="60" width="250" height="190" as="geometry" />
        </mxCell>
        <mxCell id="wQyM_oGxPqQlltokziNy-21" value="&lt;meta charset=&quot;utf-8&quot;&gt;&lt;b style=&quot;font-weight: normal&quot; id=&quot;docs-internal-guid-f854dfd2-7fff-b6ca-ab13-01373552dc66&quot;&gt;&amp;nbsp;&lt;table style=&quot;border: none ; border-collapse: collapse&quot;&gt;&lt;colgroup&gt;&lt;col width=&quot;176px&quot;&gt;&lt;/colgroup&gt;&lt;tbody&gt;&lt;tr style=&quot;height: 58px&quot;&gt;&lt;td style=&quot;background-color: #c8d9f9 ; opacity: 1 ; filter: alpha(opacity = 100) ; vertical-align: top ; border-left: solid #000000 1.330708661417323px ; border-right: solid #000000 1.330708661417323px ; border-top: solid #000000 1.330708661417323px ; border-bottom: solid #000000 1.330708661417323px ; padding-top: 10px ; padding-right: 7px ; padding-bottom: 10px ; padding-left: 7px&quot;&gt;&lt;p dir=&quot;ltr&quot; style=&quot;line-height: 1.2 ; text-align: center ; margin-top: 0pt ; margin-bottom: 0pt&quot;&gt;&lt;span style=&quot;font-size: 16pt; font-family: &amp;quot;times new roman&amp;quot;; color: rgb(0, 0, 0); background-color: transparent; font-weight: 700; font-style: normal; font-variant: normal; text-decoration: none; vertical-align: baseline;&quot;&gt;&amp;lt;&amp;lt;entity&amp;gt;&amp;gt;&lt;/span&gt;&lt;/p&gt;&lt;p dir=&quot;ltr&quot; style=&quot;line-height: 1.2 ; text-align: center ; margin-top: 0pt ; margin-bottom: 0pt&quot;&gt;&lt;span style=&quot;font-size: 16pt; font-family: &amp;quot;times new roman&amp;quot;; color: rgb(0, 0, 0); background-color: transparent; font-weight: 700; font-style: normal; font-variant: normal; text-decoration: none; vertical-align: baseline;&quot;&gt;Notification&lt;/span&gt;&lt;/p&gt;&lt;/td&gt;&lt;/tr&gt;&lt;tr style=&quot;height: 93px&quot;&gt;&lt;td style=&quot;vertical-align: top ; border-left: solid #000000 1.330708661417323px ; border-right: solid #000000 1.330708661417323px ; border-top: solid #000000 1.330708661417323px ; border-bottom: solid #000000 1.330708661417323px ; padding-top: 10px ; padding-right: 7px ; padding-bottom: 10px ; padding-left: 7px&quot;&gt;&lt;p dir=&quot;ltr&quot; style=&quot;line-height: 1.2 ; margin-top: 0pt ; margin-bottom: 0pt&quot;&gt;&lt;span style=&quot;font-size: 14pt; font-family: &amp;quot;times new roman&amp;quot;; color: rgb(0, 0, 0); background-color: transparent; font-weight: 400; font-style: normal; font-variant: normal; text-decoration: none; vertical-align: baseline;&quot;&gt;-recipientid: Int&lt;/span&gt;&lt;/p&gt;&lt;p dir=&quot;ltr&quot; style=&quot;line-height: 1.2 ; margin-top: 0pt ; margin-bottom: 0pt&quot;&gt;&lt;span style=&quot;font-size: 14pt; font-family: &amp;quot;times new roman&amp;quot;; color: rgb(0, 0, 0); background-color: transparent; font-weight: 400; font-style: normal; font-variant: normal; text-decoration: none; vertical-align: baseline;&quot;&gt;-content: String&lt;/span&gt;&lt;/p&gt;&lt;p dir=&quot;ltr&quot; style=&quot;line-height: 1.2 ; margin-top: 0pt ; margin-bottom: 0pt&quot;&gt;&lt;span style=&quot;font-size: 14pt; font-family: &amp;quot;times new roman&amp;quot;; color: rgb(0, 0, 0); background-color: transparent; font-weight: 400; font-style: normal; font-variant: normal; text-decoration: none; vertical-align: baseline;&quot;&gt;-date: String&lt;/span&gt;&lt;/p&gt;&lt;p dir=&quot;ltr&quot; style=&quot;line-height: 1.2 ; margin-top: 0pt ; margin-bottom: 0pt&quot;&gt;&lt;span style=&quot;font-size: 14pt; font-family: &amp;quot;times new roman&amp;quot;; color: rgb(0, 0, 0); background-color: transparent; font-weight: 400; font-style: normal; font-variant: normal; text-decoration: none; vertical-align: baseline;&quot;&gt;-seen: Bool&lt;/span&gt;&lt;/p&gt;&lt;/td&gt;&lt;/tr&gt;&lt;tr style=&quot;height: 35px&quot;&gt;&lt;td style=&quot;vertical-align: top ; border-left: solid #000000 1.330708661417323px ; border-right: solid #000000 1.330708661417323px ; border-top: solid #000000 1.330708661417323px ; border-bottom: solid #000000 1.330708661417323px ; padding-top: 10px ; padding-right: 7px ; padding-bottom: 10px ; padding-left: 7px&quot;&gt;&lt;p dir=&quot;ltr&quot; style=&quot;line-height: 1.2 ; margin-top: 0pt ; margin-bottom: 0pt&quot;&gt;&lt;span style=&quot;font-size: 14pt; font-family: &amp;quot;times new roman&amp;quot;; color: rgb(0, 0, 0); background-color: transparent; font-weight: 400; font-style: normal; font-variant: normal; text-decoration: none; vertical-align: baseline;&quot;&gt;+markSeen():void&lt;/span&gt;&lt;/p&gt;&lt;/td&gt;&lt;/tr&gt;&lt;/tbody&gt;&lt;/table&gt;&lt;/b&gt;" style="text;whiteSpace=wrap;html=1;" parent="WIyWlLk6GJQsqaUBKTNV-1" vertex="1">
          <mxGeometry x="-40" y="986" width="180" height="250" as="geometry" />
        </mxCell>
        <mxCell id="wQyM_oGxPqQlltokziNy-22" value="&lt;meta charset=&quot;utf-8&quot;&gt;&lt;b style=&quot;font-weight: normal&quot; id=&quot;docs-internal-guid-3cf56468-7fff-fc0f-ca5a-87188944049a&quot;&gt;&amp;nbsp;&lt;table style=&quot;border: none ; border-collapse: collapse&quot;&gt;&lt;colgroup&gt;&lt;col width=&quot;392px&quot;&gt;&lt;/colgroup&gt;&lt;tbody&gt;&lt;tr style=&quot;height: 58px&quot;&gt;&lt;td style=&quot;background-color: #d9ead3 ; opacity: 1 ; filter: alpha(opacity = 100) ; vertical-align: top ; border-left: solid #000000 1.330708661417323px ; border-right: solid #000000 1.330708661417323px ; border-top: solid #000000 1.330708661417323px ; border-bottom: solid #000000 1.330708661417323px ; padding-top: 10px ; padding-right: 7px ; padding-bottom: 10px ; padding-left: 7px&quot;&gt;&lt;p dir=&quot;ltr&quot; style=&quot;line-height: 1.2 ; text-align: center ; margin-top: 0pt ; margin-bottom: 0pt&quot;&gt;&lt;span style=&quot;font-size: 16pt; font-family: &amp;quot;times new roman&amp;quot;; color: rgb(0, 0, 0); background-color: transparent; font-weight: 700; font-style: normal; font-variant: normal; text-decoration: none; vertical-align: baseline;&quot;&gt;&amp;lt;&amp;lt;control&amp;gt;&amp;gt;&lt;/span&gt;&lt;/p&gt;&lt;p dir=&quot;ltr&quot; style=&quot;line-height: 1.2 ; text-align: center ; margin-top: 0pt ; margin-bottom: 0pt&quot;&gt;&lt;span style=&quot;font-size: 16pt; font-family: &amp;quot;times new roman&amp;quot;; color: rgb(0, 0, 0); background-color: transparent; font-weight: 700; font-style: normal; font-variant: normal; text-decoration: none; vertical-align: baseline;&quot;&gt;NotificationsManager&lt;/span&gt;&lt;/p&gt;&lt;/td&gt;&lt;/tr&gt;&lt;tr style=&quot;height: 35px&quot;&gt;&lt;td style=&quot;vertical-align: top ; border-left: solid #000000 1.330708661417323px ; border-right: solid #000000 1.330708661417323px ; border-top: solid #000000 1.330708661417323px ; border-bottom: solid #000000 1.330708661417323px ; padding-top: 10px ; padding-right: 7px ; padding-bottom: 10px ; padding-left: 7px&quot;&gt;&lt;p dir=&quot;ltr&quot; style=&quot;line-height: 1.2 ; margin-top: 0pt ; margin-bottom: 0pt&quot;&gt;&lt;span style=&quot;font-size: 14pt; font-family: &amp;quot;times new roman&amp;quot;; color: rgb(0, 0, 0); background-color: transparent; font-weight: 400; font-style: normal; font-variant: normal; text-decoration: none; vertical-align: baseline;&quot;&gt;-database: db: DataBaseManager&lt;/span&gt;&lt;/p&gt;&lt;/td&gt;&lt;/tr&gt;&lt;tr style=&quot;height: 51px&quot;&gt;&lt;td style=&quot;vertical-align: top ; border-left: solid #000000 1.330708661417323px ; border-right: solid #000000 1.330708661417323px ; border-top: solid #000000 1.330708661417323px ; border-bottom: solid #000000 1.330708661417323px ; padding-top: 10px ; padding-right: 7px ; padding-bottom: 10px ; padding-left: 7px&quot;&gt;&lt;p dir=&quot;ltr&quot; style=&quot;line-height: 1.2 ; margin-top: 0pt ; margin-bottom: 0pt&quot;&gt;&lt;span style=&quot;font-size: 14pt; font-family: &amp;quot;times new roman&amp;quot;; color: rgb(0, 0, 0); background-color: transparent; font-weight: 400; font-style: normal; font-variant: normal; text-decoration: none; vertical-align: baseline;&quot;&gt;+sendNotification(int,string): n:Notification&lt;/span&gt;&lt;/p&gt;&lt;/td&gt;&lt;/tr&gt;&lt;/tbody&gt;&lt;/table&gt;&lt;/b&gt;" style="text;whiteSpace=wrap;html=1;" parent="WIyWlLk6GJQsqaUBKTNV-1" vertex="1">
          <mxGeometry x="1550" y="-160" width="390" height="200" as="geometry" />
        </mxCell>
        <mxCell id="wQyM_oGxPqQlltokziNy-25" value="" style="endArrow=diamondThin;endFill=1;endSize=24;html=1;exitX=0.75;exitY=1;exitDx=0;exitDy=0;" parent="WIyWlLk6GJQsqaUBKTNV-1" source="wQyM_oGxPqQlltokziNy-19" edge="1">
          <mxGeometry width="160" relative="1" as="geometry">
            <mxPoint x="850" y="1100" as="sourcePoint" />
            <mxPoint x="1200" y="1030" as="targetPoint" />
            <Array as="points">
              <mxPoint x="825" y="1140" />
              <mxPoint x="1200" y="1140" />
            </Array>
          </mxGeometry>
        </mxCell>
        <mxCell id="wQyM_oGxPqQlltokziNy-26" value="2" style="text;align=center;fontStyle=1;verticalAlign=middle;spacingLeft=3;spacingRight=3;strokeColor=none;rotatable=0;points=[[0,0.5],[1,0.5]];portConstraint=eastwest;fontSize=16;" parent="WIyWlLk6GJQsqaUBKTNV-1" vertex="1">
          <mxGeometry x="880" y="1000" width="80" height="26" as="geometry" />
        </mxCell>
        <mxCell id="wQyM_oGxPqQlltokziNy-27" value="1" style="text;align=center;fontStyle=1;verticalAlign=middle;spacingLeft=3;spacingRight=3;strokeColor=none;rotatable=0;points=[[0,0.5],[1,0.5]];portConstraint=eastwest;fontSize=16;" parent="WIyWlLk6GJQsqaUBKTNV-1" vertex="1">
          <mxGeometry x="1110" y="960" width="80" height="26" as="geometry" />
        </mxCell>
        <mxCell id="wQyM_oGxPqQlltokziNy-28" value="" style="endArrow=diamondThin;endFill=0;endSize=24;html=1;fontSize=16;exitX=0;exitY=0.25;exitDx=0;exitDy=0;entryX=1.003;entryY=0.871;entryDx=0;entryDy=0;entryPerimeter=0;" parent="WIyWlLk6GJQsqaUBKTNV-1" source="wQyM_oGxPqQlltokziNy-18" target="wQyM_oGxPqQlltokziNy-17" edge="1">
          <mxGeometry width="160" relative="1" as="geometry">
            <mxPoint x="690" y="750" as="sourcePoint" />
            <mxPoint x="820" y="740" as="targetPoint" />
            <Array as="points">
              <mxPoint x="1010" y="812" />
              <mxPoint x="1010" y="761" />
            </Array>
          </mxGeometry>
        </mxCell>
        <mxCell id="wQyM_oGxPqQlltokziNy-29" value="1" style="text;align=center;fontStyle=1;verticalAlign=middle;spacingLeft=3;spacingRight=3;strokeColor=none;rotatable=0;points=[[0,0.5],[1,0.5]];portConstraint=eastwest;fontSize=16;" parent="WIyWlLk6GJQsqaUBKTNV-1" vertex="1">
          <mxGeometry x="790" y="710" width="80" height="26" as="geometry" />
        </mxCell>
        <mxCell id="wQyM_oGxPqQlltokziNy-30" value="*" style="text;align=center;fontStyle=1;verticalAlign=middle;spacingLeft=3;spacingRight=3;strokeColor=none;rotatable=0;points=[[0,0.5],[1,0.5]];portConstraint=eastwest;fontSize=16;" parent="WIyWlLk6GJQsqaUBKTNV-1" vertex="1">
          <mxGeometry x="1010" y="774" width="80" height="26" as="geometry" />
        </mxCell>
        <mxCell id="wQyM_oGxPqQlltokziNy-31" value="" style="endArrow=diamondThin;endFill=0;endSize=24;html=1;fontSize=16;exitX=0;exitY=0.25;exitDx=0;exitDy=0;" parent="WIyWlLk6GJQsqaUBKTNV-1" source="wQyM_oGxPqQlltokziNy-19" edge="1">
          <mxGeometry width="160" relative="1" as="geometry">
            <mxPoint x="661.26" y="819.5" as="sourcePoint" />
            <mxPoint x="330" y="860" as="targetPoint" />
            <Array as="points">
              <mxPoint x="330" y="900" />
            </Array>
          </mxGeometry>
        </mxCell>
        <mxCell id="wQyM_oGxPqQlltokziNy-32" value="*" style="text;align=center;fontStyle=1;verticalAlign=middle;spacingLeft=3;spacingRight=3;strokeColor=none;rotatable=0;points=[[0,0.5],[1,0.5]];portConstraint=eastwest;fontSize=16;" parent="WIyWlLk6GJQsqaUBKTNV-1" vertex="1">
          <mxGeometry x="640" y="870" width="80" height="26" as="geometry" />
        </mxCell>
        <mxCell id="wQyM_oGxPqQlltokziNy-33" value="1" style="text;align=center;fontStyle=1;verticalAlign=middle;spacingLeft=3;spacingRight=3;strokeColor=none;rotatable=0;points=[[0,0.5],[1,0.5]];portConstraint=eastwest;fontSize=16;" parent="WIyWlLk6GJQsqaUBKTNV-1" vertex="1">
          <mxGeometry x="350" y="870" width="80" height="26" as="geometry" />
        </mxCell>
        <mxCell id="wQyM_oGxPqQlltokziNy-35" value="" style="endArrow=diamondThin;endFill=0;endSize=24;html=1;fontSize=16;exitX=1.001;exitY=0.544;exitDx=0;exitDy=0;exitPerimeter=0;" parent="WIyWlLk6GJQsqaUBKTNV-1" source="wQyM_oGxPqQlltokziNy-21" edge="1">
          <mxGeometry width="160" relative="1" as="geometry">
            <mxPoint x="340" y="1009.22" as="sourcePoint" />
            <mxPoint x="240" y="860" as="targetPoint" />
            <Array as="points">
              <mxPoint x="240" y="1122" />
            </Array>
          </mxGeometry>
        </mxCell>
        <mxCell id="wQyM_oGxPqQlltokziNy-36" value="*" style="text;align=center;fontStyle=1;verticalAlign=middle;spacingLeft=3;spacingRight=3;strokeColor=none;rotatable=0;points=[[0,0.5],[1,0.5]];portConstraint=eastwest;fontSize=16;" parent="WIyWlLk6GJQsqaUBKTNV-1" vertex="1">
          <mxGeometry x="150" y="1080" width="80" height="26" as="geometry" />
        </mxCell>
        <mxCell id="wQyM_oGxPqQlltokziNy-37" value="1" style="text;align=center;fontStyle=1;verticalAlign=middle;spacingLeft=3;spacingRight=3;strokeColor=none;rotatable=0;points=[[0,0.5],[1,0.5]];portConstraint=eastwest;fontSize=16;" parent="WIyWlLk6GJQsqaUBKTNV-1" vertex="1">
          <mxGeometry x="170" y="874" width="80" height="26" as="geometry" />
        </mxCell>
        <mxCell id="wQyM_oGxPqQlltokziNy-39" value="*" style="text;align=center;fontStyle=1;verticalAlign=middle;spacingLeft=3;spacingRight=3;strokeColor=none;rotatable=0;points=[[0,0.5],[1,0.5]];portConstraint=eastwest;fontSize=16;" parent="WIyWlLk6GJQsqaUBKTNV-1" vertex="1">
          <mxGeometry x="-60" y="920" width="80" height="26" as="geometry" />
        </mxCell>
        <mxCell id="wQyM_oGxPqQlltokziNy-41" value="" style="endArrow=diamondThin;endFill=0;endSize=24;html=1;fontSize=16;exitX=1;exitY=0.5;exitDx=0;exitDy=0;" parent="WIyWlLk6GJQsqaUBKTNV-1" source="wQyM_oGxPqQlltokziNy-8" target="wQyM_oGxPqQlltokziNy-10" edge="1">
          <mxGeometry width="160" relative="1" as="geometry">
            <mxPoint x="-19" y="830" as="sourcePoint" />
            <mxPoint x="-83.36000000000013" y="680.004" as="targetPoint" />
            <Array as="points">
              <mxPoint x="-19" y="920" />
              <mxPoint x="-19" y="820" />
              <mxPoint x="-19" y="540" />
            </Array>
          </mxGeometry>
        </mxCell>
        <mxCell id="wQyM_oGxPqQlltokziNy-42" value="1" style="text;align=center;fontStyle=1;verticalAlign=middle;spacingLeft=3;spacingRight=3;strokeColor=none;rotatable=0;points=[[0,0.5],[1,0.5]];portConstraint=eastwest;fontSize=16;" parent="WIyWlLk6GJQsqaUBKTNV-1" vertex="1">
          <mxGeometry x="-40" y="550" width="80" height="26" as="geometry" />
        </mxCell>
        <mxCell id="wQyM_oGxPqQlltokziNy-43" value="" style="endArrow=diamondThin;endFill=1;endSize=24;html=1;exitX=1;exitY=0.309;exitDx=0;exitDy=0;exitPerimeter=0;" parent="WIyWlLk6GJQsqaUBKTNV-1" source="wQyM_oGxPqQlltokziNy-10" target="wQyM_oGxPqQlltokziNy-12" edge="1">
          <mxGeometry width="160" relative="1" as="geometry">
            <mxPoint x="-240" y="392.7600000000002" as="sourcePoint" />
            <mxPoint x="90" y="310" as="targetPoint" />
            <Array as="points">
              <mxPoint x="70" y="498" />
            </Array>
          </mxGeometry>
        </mxCell>
        <mxCell id="wQyM_oGxPqQlltokziNy-44" value="2" style="text;align=center;fontStyle=0;verticalAlign=middle;spacingLeft=3;spacingRight=3;strokeColor=none;rotatable=0;points=[[0,0.5],[1,0.5]];portConstraint=eastwest;fontSize=16;" parent="WIyWlLk6GJQsqaUBKTNV-1" vertex="1">
          <mxGeometry x="50" y="460" width="80" height="26" as="geometry" />
        </mxCell>
        <mxCell id="wQyM_oGxPqQlltokziNy-45" value="*" style="text;align=center;fontStyle=1;verticalAlign=middle;spacingLeft=3;spacingRight=3;strokeColor=none;rotatable=0;points=[[0,0.5],[1,0.5]];portConstraint=eastwest;fontSize=16;" parent="WIyWlLk6GJQsqaUBKTNV-1" vertex="1">
          <mxGeometry x="-30" y="460" width="80" height="26" as="geometry" />
        </mxCell>
        <mxCell id="wQyM_oGxPqQlltokziNy-48" value="" style="endArrow=diamondThin;endFill=0;endSize=24;html=1;fontSize=16;exitX=0;exitY=0.25;exitDx=0;exitDy=0;" parent="WIyWlLk6GJQsqaUBKTNV-1" edge="1">
          <mxGeometry width="160" relative="1" as="geometry">
            <mxPoint x="611.26" y="570" as="sourcePoint" />
            <mxPoint x="370" y="571" as="targetPoint" />
          </mxGeometry>
        </mxCell>
        <mxCell id="wQyM_oGxPqQlltokziNy-49" value="*" style="text;align=center;fontStyle=1;verticalAlign=middle;spacingLeft=3;spacingRight=3;strokeColor=none;rotatable=0;points=[[0,0.5],[1,0.5]];portConstraint=eastwest;fontSize=16;" parent="WIyWlLk6GJQsqaUBKTNV-1" vertex="1">
          <mxGeometry x="550" y="544" width="80" height="26" as="geometry" />
        </mxCell>
        <mxCell id="wQyM_oGxPqQlltokziNy-50" value="1" style="text;align=center;fontStyle=1;verticalAlign=middle;spacingLeft=3;spacingRight=3;strokeColor=none;rotatable=0;points=[[0,0.5],[1,0.5]];portConstraint=eastwest;fontSize=16;" parent="WIyWlLk6GJQsqaUBKTNV-1" vertex="1">
          <mxGeometry x="360" y="540" width="80" height="26" as="geometry" />
        </mxCell>
        <mxCell id="wQyM_oGxPqQlltokziNy-51" value="" style="endArrow=diamondThin;endFill=0;endSize=24;html=1;fontSize=16;exitX=0.695;exitY=1.003;exitDx=0;exitDy=0;exitPerimeter=0;" parent="WIyWlLk6GJQsqaUBKTNV-1" source="wQyM_oGxPqQlltokziNy-2" target="wQyM_oGxPqQlltokziNy-12" edge="1">
          <mxGeometry width="160" relative="1" as="geometry">
            <mxPoint x="440" y="300" as="sourcePoint" />
            <mxPoint x="-10" y="280" as="targetPoint" />
            <Array as="points">
              <mxPoint x="549" y="486" />
            </Array>
          </mxGeometry>
        </mxCell>
        <mxCell id="wQyM_oGxPqQlltokziNy-52" value="*" style="text;align=center;fontStyle=1;verticalAlign=middle;spacingLeft=3;spacingRight=3;strokeColor=none;rotatable=0;points=[[0,0.5],[1,0.5]];portConstraint=eastwest;fontSize=16;" parent="WIyWlLk6GJQsqaUBKTNV-1" vertex="1">
          <mxGeometry x="490" y="404" width="80" height="26" as="geometry" />
        </mxCell>
        <mxCell id="wQyM_oGxPqQlltokziNy-53" value="*" style="text;align=center;fontStyle=1;verticalAlign=middle;spacingLeft=3;spacingRight=3;strokeColor=none;rotatable=0;points=[[0,0.5],[1,0.5]];portConstraint=eastwest;fontSize=16;" parent="WIyWlLk6GJQsqaUBKTNV-1" vertex="1">
          <mxGeometry x="374" y="450" width="80" height="26" as="geometry" />
        </mxCell>
        <mxCell id="wQyM_oGxPqQlltokziNy-59" value="&lt;meta charset=&quot;utf-8&quot;&gt;&lt;b style=&quot;font-weight: normal&quot; id=&quot;docs-internal-guid-886e13b9-7fff-0bf7-1281-d207e5bb6e71&quot;&gt;&amp;nbsp;&lt;table style=&quot;border: none ; border-collapse: collapse&quot;&gt;&lt;colgroup&gt;&lt;col width=&quot;289px&quot;&gt;&lt;/colgroup&gt;&lt;tbody&gt;&lt;tr style=&quot;height: 61px&quot;&gt;&lt;td style=&quot;background-color: #ead1dd ; opacity: 1 ; filter: alpha(opacity = 100) ; vertical-align: top ; border-left: solid #000000 1.330708661417323px ; border-right: solid #000000 1.330708661417323px ; border-top: solid #000000 1.330708661417323px ; border-bottom: solid #000000 1.330708661417323px ; padding-top: 10px ; padding-right: 7px ; padding-bottom: 10px ; padding-left: 7px&quot;&gt;&lt;p dir=&quot;ltr&quot; style=&quot;line-height: 1.2 ; text-align: center ; margin-top: 0pt ; margin-bottom: 0pt&quot;&gt;&lt;span style=&quot;font-size: 16pt; font-family: &amp;quot;times new roman&amp;quot;; color: rgb(0, 0, 0); background-color: transparent; font-weight: 700; font-style: normal; font-variant: normal; text-decoration: none; vertical-align: baseline;&quot;&gt;&amp;lt;&amp;lt;observer&amp;gt;&amp;gt;&lt;/span&gt;&lt;/p&gt;&lt;p dir=&quot;ltr&quot; style=&quot;line-height: 1.2 ; text-align: center ; margin-top: 0pt ; margin-bottom: 0pt&quot;&gt;&lt;span style=&quot;font-size: 16pt; font-family: &amp;quot;times new roman&amp;quot;; color: rgb(0, 0, 0); background-color: transparent; font-weight: 700; font-style: normal; font-variant: normal; text-decoration: none; vertical-align: baseline;&quot;&gt;Time&lt;/span&gt;&lt;/p&gt;&lt;/td&gt;&lt;/tr&gt;&lt;tr style=&quot;height: 36px&quot;&gt;&lt;td style=&quot;vertical-align: top ; border-left: solid #000000 1.330708661417323px ; border-right: solid #000000 1.330708661417323px ; border-top: solid #000000 1.330708661417323px ; border-bottom: solid #000000 1.330708661417323px ; padding-top: 10px ; padding-right: 7px ; padding-bottom: 10px ; padding-left: 7px&quot;&gt;&lt;p dir=&quot;ltr&quot; style=&quot;line-height: 1.2 ; margin-top: 0pt ; margin-bottom: 0pt&quot;&gt;&lt;span style=&quot;font-size: 14pt; font-family: &amp;quot;times new roman&amp;quot;; color: rgb(0, 0, 0); background-color: transparent; font-weight: 400; font-style: normal; font-variant: normal; text-decoration: none; vertical-align: baseline;&quot;&gt;-database: db: DataBaseManager&lt;/span&gt;&lt;/p&gt;&lt;/td&gt;&lt;/tr&gt;&lt;tr style=&quot;height: 68px&quot;&gt;&lt;td style=&quot;vertical-align: top ; border-left: solid #000000 1.330708661417323px ; border-right: solid #000000 1.330708661417323px ; border-top: solid #000000 1.330708661417323px ; border-bottom: solid #000000 1.330708661417323px ; padding-top: 10px ; padding-right: 7px ; padding-bottom: 10px ; padding-left: 7px&quot;&gt;&lt;p dir=&quot;ltr&quot; style=&quot;line-height: 1.2 ; margin-top: 0pt ; margin-bottom: 0pt&quot;&gt;&lt;span style=&quot;font-size: 14pt; font-family: &amp;quot;times new roman&amp;quot;; color: rgb(0, 0, 0); background-color: transparent; font-weight: 400; font-style: normal; font-variant: normal; text-decoration: none; vertical-align: baseline;&quot;&gt;+checkExpiredAdverts(): Int[]&lt;/span&gt;&lt;/p&gt;&lt;p dir=&quot;ltr&quot; style=&quot;line-height: 1.2 ; margin-top: 0pt ; margin-bottom: 0pt&quot;&gt;&lt;span style=&quot;font-size: 14pt; font-family: &amp;quot;times new roman&amp;quot;; color: rgb(0, 0, 0); background-color: transparent; font-weight: 400; font-style: normal; font-variant: normal; text-decoration: none; vertical-align: baseline;&quot;&gt;+closeBooking): Int[]&lt;/span&gt;&lt;/p&gt;&lt;/td&gt;&lt;/tr&gt;&lt;/tbody&gt;&lt;/table&gt;&lt;/b&gt;" style="text;whiteSpace=wrap;html=1;fontSize=16;" parent="WIyWlLk6GJQsqaUBKTNV-1" vertex="1">
          <mxGeometry x="1520" y="250" width="290" height="210" as="geometry" />
        </mxCell>
        <mxCell id="wQyM_oGxPqQlltokziNy-61" value="" style="endArrow=none;html=1;fontSize=16;exitX=0.75;exitY=1;exitDx=0;exitDy=0;" parent="WIyWlLk6GJQsqaUBKTNV-1" source="wQyM_oGxPqQlltokziNy-15" edge="1">
          <mxGeometry width="50" height="50" relative="1" as="geometry">
            <mxPoint x="40" y="400" as="sourcePoint" />
            <mxPoint x="110" y="413" as="targetPoint" />
            <Array as="points">
              <mxPoint x="-105" y="413" />
            </Array>
          </mxGeometry>
        </mxCell>
        <mxCell id="wQyM_oGxPqQlltokziNy-64" value="2" style="text;align=center;fontStyle=0;verticalAlign=middle;spacingLeft=3;spacingRight=3;strokeColor=none;rotatable=0;points=[[0,0.5],[1,0.5]];portConstraint=eastwest;fontSize=16;" parent="WIyWlLk6GJQsqaUBKTNV-1" vertex="1">
          <mxGeometry x="-100" y="350" width="80" height="26" as="geometry" />
        </mxCell>
        <mxCell id="wQyM_oGxPqQlltokziNy-65" value="*" style="text;align=center;fontStyle=0;verticalAlign=middle;spacingLeft=3;spacingRight=3;strokeColor=none;rotatable=0;points=[[0,0.5],[1,0.5]];portConstraint=eastwest;fontSize=16;" parent="WIyWlLk6GJQsqaUBKTNV-1" vertex="1">
          <mxGeometry x="50" y="380" width="80" height="26" as="geometry" />
        </mxCell>
        <mxCell id="wQyM_oGxPqQlltokziNy-67" value="&lt;meta charset=&quot;utf-8&quot;&gt;&lt;b style=&quot;font-weight: normal&quot; id=&quot;docs-internal-guid-c81366a0-7fff-0741-d27c-4744dda8bf2a&quot;&gt;&amp;nbsp;&lt;table style=&quot;border: none ; border-collapse: collapse&quot;&gt;&lt;colgroup&gt;&lt;col width=&quot;300px&quot;&gt;&lt;/colgroup&gt;&lt;tbody&gt;&lt;tr style=&quot;height: 68px&quot;&gt;&lt;td style=&quot;background-color: #ead1dc ; opacity: 1 ; filter: alpha(opacity = 100) ; vertical-align: top ; border-left: solid #000000 1.330708661417323px ; border-right: solid #000000 1.330708661417323px ; border-top: solid #000000 1.330708661417323px ; border-bottom: solid #000000 1.330708661417323px ; padding-top: 10px ; padding-right: 7px ; padding-bottom: 10px ; padding-left: 7px&quot;&gt;&lt;p dir=&quot;ltr&quot; style=&quot;line-height: 1.2 ; text-align: center ; margin-top: 0pt ; margin-bottom: 0pt&quot;&gt;&lt;span style=&quot;font-size: 16pt; font-family: &amp;quot;times new roman&amp;quot;; color: rgb(0, 0, 0); background-color: transparent; font-weight: 700; font-style: normal; font-variant: normal; text-decoration: none; vertical-align: baseline;&quot;&gt;&amp;lt;&amp;lt;boundary&amp;gt;&amp;gt;&lt;/span&gt;&lt;/p&gt;&lt;p dir=&quot;ltr&quot; style=&quot;line-height: 1.2 ; text-align: center ; margin-top: 0pt ; margin-bottom: 0pt&quot;&gt;&lt;span style=&quot;font-size: 16pt; font-family: &amp;quot;times new roman&amp;quot;; color: rgb(0, 0, 0); background-color: transparent; font-weight: 700; font-style: normal; font-variant: normal; text-decoration: none; vertical-align: baseline;&quot;&gt;DataBaseManager&lt;/span&gt;&lt;/p&gt;&lt;/td&gt;&lt;/tr&gt;&lt;tr style=&quot;height: 41px&quot;&gt;&lt;td style=&quot;vertical-align: top ; border-left: solid #000000 1.330708661417323px ; border-right: solid #000000 1.330708661417323px ; border-top: solid #000000 1.330708661417323px ; border-bottom: solid #000000 1.330708661417323px ; padding-top: 10px ; padding-right: 7px ; padding-bottom: 10px ; padding-left: 7px&quot;&gt;&lt;p dir=&quot;ltr&quot; style=&quot;line-height: 1.2 ; margin-top: 0pt ; margin-bottom: 0pt&quot;&gt;&lt;span style=&quot;font-size: 14pt; font-family: &amp;quot;times new roman&amp;quot;; color: rgb(0, 0, 0); background-color: transparent; font-weight: 400; font-style: normal; font-variant: normal; text-decoration: none; vertical-align: baseline;&quot;&gt;-connection: c:DataBaseConnection&lt;/span&gt;&lt;/p&gt;&lt;/td&gt;&lt;/tr&gt;&lt;tr style=&quot;height: 105px&quot;&gt;&lt;td style=&quot;vertical-align: top ; border-left: solid #000000 1.330708661417323px ; border-right: solid #000000 1.330708661417323px ; border-top: solid #000000 1.330708661417323px ; border-bottom: solid #000000 1.330708661417323px ; padding-top: 10px ; padding-right: 7px ; padding-bottom: 10px ; padding-left: 7px&quot;&gt;&lt;p dir=&quot;ltr&quot; style=&quot;line-height: 1.2 ; margin-top: 0pt ; margin-bottom: 0pt&quot;&gt;&lt;span style=&quot;font-size: 14pt; font-family: &amp;quot;times new roman&amp;quot;; color: rgb(0, 0, 0); background-color: transparent; font-weight: 400; font-style: normal; font-variant: normal; text-decoration: none; vertical-align: baseline;&quot;&gt;+verifyLogin()&lt;/span&gt;&lt;/p&gt;&lt;p dir=&quot;ltr&quot; style=&quot;line-height: 1.2 ; margin-top: 0pt ; margin-bottom: 0pt&quot;&gt;&lt;span style=&quot;font-size: 14pt; font-family: &amp;quot;times new roman&amp;quot;; color: rgb(0, 0, 0); background-color: transparent; font-weight: 400; font-style: normal; font-variant: normal; text-decoration: none; vertical-align: baseline;&quot;&gt;+verifyRegistration()&lt;/span&gt;&lt;/p&gt;&lt;p dir=&quot;ltr&quot; style=&quot;line-height: 1.2 ; margin-top: 0pt ; margin-bottom: 0pt&quot;&gt;&lt;span style=&quot;font-size: 14pt; font-family: &amp;quot;times new roman&amp;quot;; color: rgb(0, 0, 0); background-color: transparent; font-weight: 400; font-style: normal; font-variant: normal; text-decoration: none; vertical-align: baseline;&quot;&gt;+insertData(): Bool&lt;/span&gt;&lt;/p&gt;&lt;p dir=&quot;ltr&quot; style=&quot;line-height: 1.2 ; margin-top: 0pt ; margin-bottom: 0pt&quot;&gt;&lt;span style=&quot;font-size: 14pt; font-family: &amp;quot;times new roman&amp;quot;; color: rgb(0, 0, 0); background-color: transparent; font-weight: 400; font-style: normal; font-variant: normal; text-decoration: none; vertical-align: baseline;&quot;&gt;+updateData(): Bool&lt;/span&gt;&lt;/p&gt;&lt;p dir=&quot;ltr&quot; style=&quot;line-height: 1.2 ; margin-top: 0pt ; margin-bottom: 0pt&quot;&gt;&lt;span style=&quot;font-size: 14pt; font-family: &amp;quot;times new roman&amp;quot;; color: rgb(0, 0, 0); background-color: transparent; font-weight: 400; font-style: normal; font-variant: normal; text-decoration: none; vertical-align: baseline;&quot;&gt;+deleteData(): Bool&lt;/span&gt;&lt;/p&gt;&lt;p dir=&quot;ltr&quot; style=&quot;line-height: 1.2 ; margin-top: 0pt ; margin-bottom: 0pt&quot;&gt;&lt;span style=&quot;font-size: 14pt; font-family: &amp;quot;times new roman&amp;quot;; color: rgb(0, 0, 0); background-color: transparent; font-weight: 400; font-style: normal; font-variant: normal; text-decoration: none; vertical-align: baseline;&quot;&gt;+retrieveData(): Dict&lt;/span&gt;&lt;/p&gt;&lt;/td&gt;&lt;/tr&gt;&lt;/tbody&gt;&lt;/table&gt;&lt;/b&gt;" style="text;whiteSpace=wrap;html=1;fontSize=16;" parent="WIyWlLk6GJQsqaUBKTNV-1" vertex="1">
          <mxGeometry x="-20" y="-630" width="290" height="280" as="geometry" />
        </mxCell>
        <mxCell id="wQyM_oGxPqQlltokziNy-86" value="*" style="text;align=center;fontStyle=1;verticalAlign=middle;spacingLeft=3;spacingRight=3;strokeColor=none;rotatable=0;points=[[0,0.5],[1,0.5]];portConstraint=eastwest;fontSize=16;" parent="WIyWlLk6GJQsqaUBKTNV-1" vertex="1">
          <mxGeometry x="1574" y="350" width="80" height="26" as="geometry" />
        </mxCell>
        <mxCell id="wQyM_oGxPqQlltokziNy-96" value="&lt;meta charset=&quot;utf-8&quot;&gt;&lt;b style=&quot;font-weight: normal&quot; id=&quot;docs-internal-guid-58994017-7fff-07c2-12c5-77462c3b6ff1&quot;&gt;&amp;nbsp;&lt;table style=&quot;border: none ; border-collapse: collapse&quot;&gt;&lt;colgroup&gt;&lt;col width=&quot;264px&quot;&gt;&lt;/colgroup&gt;&lt;tbody&gt;&lt;tr style=&quot;height: 74px&quot;&gt;&lt;td style=&quot;background-color: #d9ead3 ; opacity: 1 ; filter: alpha(opacity = 100) ; vertical-align: top ; border-left: solid #000000 1.330708661417323px ; border-right: solid #000000 1.330708661417323px ; border-top: solid #000000 1.330708661417323px ; border-bottom: solid #000000 1.330708661417323px ; padding-top: 10px ; padding-right: 7px ; padding-bottom: 10px ; padding-left: 7px&quot;&gt;&lt;p dir=&quot;ltr&quot; style=&quot;line-height: 1.2 ; text-align: center ; margin-top: 0pt ; margin-bottom: 0pt&quot;&gt;&lt;span style=&quot;font-size: 16pt; font-family: &amp;quot;times new roman&amp;quot;; color: rgb(0, 0, 0); background-color: transparent; font-weight: 700; font-style: normal; font-variant: normal; text-decoration: none; vertical-align: baseline;&quot;&gt;&amp;lt;&amp;lt;control&amp;gt;&amp;gt;&lt;/span&gt;&lt;/p&gt;&lt;p dir=&quot;ltr&quot; style=&quot;line-height: 1.2 ; text-align: center ; margin-top: 0pt ; margin-bottom: 0pt&quot;&gt;&lt;span style=&quot;font-size: 16pt; font-family: &amp;quot;times new roman&amp;quot;; color: rgb(0, 0, 0); background-color: transparent; font-weight: 700; font-style: normal; font-variant: normal; text-decoration: none; vertical-align: baseline;&quot;&gt;ChatManager&lt;/span&gt;&lt;/p&gt;&lt;/td&gt;&lt;/tr&gt;&lt;tr style=&quot;height: 44px&quot;&gt;&lt;td style=&quot;vertical-align: top ; border-left: solid #000000 1.330708661417323px ; border-right: solid #000000 1.330708661417323px ; border-top: solid #000000 1.330708661417323px ; border-bottom: solid #000000 1.330708661417323px ; padding-top: 10px ; padding-right: 7px ; padding-bottom: 10px ; padding-left: 7px&quot;&gt;&lt;p dir=&quot;ltr&quot; style=&quot;line-height: 1.2 ; margin-top: 0pt ; margin-bottom: 0pt&quot;&gt;&lt;span style=&quot;font-size: 14pt; font-family: &amp;quot;times new roman&amp;quot;; color: rgb(0, 0, 0); background-color: transparent; font-weight: 400; font-style: normal; font-variant: normal; text-decoration: none; vertical-align: baseline;&quot;&gt;-database: db: DataBaseManager&lt;/span&gt;&lt;/p&gt;&lt;/td&gt;&lt;/tr&gt;&lt;tr style=&quot;height: 54px&quot;&gt;&lt;td style=&quot;vertical-align: top ; border-left: solid #000000 1.330708661417323px ; border-right: solid #000000 1.330708661417323px ; border-top: solid #000000 1.330708661417323px ; border-bottom: solid #000000 1.330708661417323px ; padding-top: 10px ; padding-right: 7px ; padding-bottom: 10px ; padding-left: 7px&quot;&gt;&lt;p dir=&quot;ltr&quot; style=&quot;line-height: 1.2 ; margin-top: 0pt ; margin-bottom: 0pt&quot;&gt;&lt;span style=&quot;font-size: 14pt; font-family: &amp;quot;times new roman&amp;quot;; color: rgb(0, 0, 0); background-color: transparent; font-weight: 400; font-style: normal; font-variant: normal; text-decoration: none; vertical-align: baseline;&quot;&gt;+newChat()&lt;/span&gt;&lt;/p&gt;&lt;/td&gt;&lt;/tr&gt;&lt;/tbody&gt;&lt;/table&gt;&lt;/b&gt;" style="text;whiteSpace=wrap;html=1;fontSize=16;" parent="WIyWlLk6GJQsqaUBKTNV-1" vertex="1">
          <mxGeometry x="-600" y="-200" width="270" height="220" as="geometry" />
        </mxCell>
        <mxCell id="wQyM_oGxPqQlltokziNy-100" value="&lt;meta charset=&quot;utf-8&quot;&gt;&lt;b style=&quot;font-weight: normal&quot; id=&quot;docs-internal-guid-b1d99b55-7fff-46d5-19dc-857104272723&quot;&gt;&amp;nbsp;&lt;table style=&quot;border: none ; border-collapse: collapse&quot;&gt;&lt;colgroup&gt;&lt;col width=&quot;335px&quot;&gt;&lt;/colgroup&gt;&lt;tbody&gt;&lt;tr style=&quot;height: 33px&quot;&gt;&lt;td style=&quot;background-color: #d9ead3 ; opacity: 1 ; filter: alpha(opacity = 100) ; vertical-align: top ; border-left: solid #000000 1.330708661417323px ; border-right: solid #000000 1.330708661417323px ; border-top: solid #000000 1.330708661417323px ; border-bottom: solid #000000 1.330708661417323px ; padding-top: 10px ; padding-right: 7px ; padding-bottom: 10px ; padding-left: 7px&quot;&gt;&lt;p dir=&quot;ltr&quot; style=&quot;line-height: 1.2 ; text-align: center ; margin-top: 0pt ; margin-bottom: 0pt&quot;&gt;&lt;span style=&quot;font-size: 16pt; font-family: &amp;quot;times new roman&amp;quot;; color: rgb(0, 0, 0); background-color: transparent; font-weight: 700; font-style: normal; font-variant: normal; text-decoration: none; vertical-align: baseline;&quot;&gt;&amp;lt;&amp;lt;control&amp;gt;&amp;gt;&lt;/span&gt;&lt;/p&gt;&lt;p dir=&quot;ltr&quot; style=&quot;line-height: 1.2 ; text-align: center ; margin-top: 0pt ; margin-bottom: 0pt&quot;&gt;&lt;span style=&quot;font-size: 16pt; font-family: &amp;quot;times new roman&amp;quot;; color: rgb(0, 0, 0); background-color: transparent; font-weight: 700; font-style: normal; font-variant: normal; text-decoration: none; vertical-align: baseline;&quot;&gt;AccountManager&lt;/span&gt;&lt;/p&gt;&lt;/td&gt;&lt;/tr&gt;&lt;tr style=&quot;height: 21px&quot;&gt;&lt;td style=&quot;vertical-align: top ; border-left: solid #000000 1.330708661417323px ; border-right: solid #000000 1.330708661417323px ; border-top: solid #000000 1.330708661417323px ; border-bottom: solid #000000 1.330708661417323px ; padding-top: 10px ; padding-right: 7px ; padding-bottom: 10px ; padding-left: 7px&quot;&gt;&lt;p dir=&quot;ltr&quot; style=&quot;line-height: 1.2 ; margin-top: 0pt ; margin-bottom: 0pt&quot;&gt;&lt;span style=&quot;font-size: 16pt; font-family: &amp;quot;times new roman&amp;quot;; color: rgb(0, 0, 0); background-color: transparent; font-weight: 400; font-style: normal; font-variant: normal; text-decoration: none; vertical-align: baseline;&quot;&gt;-&lt;/span&gt;&lt;span style=&quot;font-size: 14pt; font-family: &amp;quot;times new roman&amp;quot;; color: rgb(0, 0, 0); background-color: transparent; font-weight: 400; font-style: normal; font-variant: normal; text-decoration: none; vertical-align: baseline;&quot;&gt;database: db: DataBaseManager&lt;/span&gt;&lt;/p&gt;&lt;/td&gt;&lt;/tr&gt;&lt;tr style=&quot;height: 63px&quot;&gt;&lt;td style=&quot;vertical-align: top ; border-left: solid #000000 1.330708661417323px ; border-right: solid #000000 1.330708661417323px ; border-top: solid #000000 1.330708661417323px ; border-bottom: solid #000000 1.330708661417323px ; padding-top: 10px ; padding-right: 7px ; padding-bottom: 10px ; padding-left: 7px&quot;&gt;&lt;p dir=&quot;ltr&quot; style=&quot;line-height: 1.2 ; margin-top: 0pt ; margin-bottom: 0pt&quot;&gt;&lt;span style=&quot;font-size: 14pt; font-family: &amp;quot;times new roman&amp;quot;; color: rgb(0, 0, 0); background-color: transparent; font-weight: 400; font-style: normal; font-variant: normal; text-decoration: none; vertical-align: baseline;&quot;&gt;+verifyDetails()&lt;/span&gt;&lt;/p&gt;&lt;p dir=&quot;ltr&quot; style=&quot;line-height: 1.2 ; margin-top: 0pt ; margin-bottom: 0pt&quot;&gt;&lt;span style=&quot;font-size: 14pt; font-family: &amp;quot;times new roman&amp;quot;; color: rgb(0, 0, 0); background-color: transparent; font-weight: 400; font-style: normal; font-variant: normal; text-decoration: none; vertical-align: baseline;&quot;&gt;+register(string,Byte[],string,string,string)&lt;/span&gt;&lt;/p&gt;&lt;p dir=&quot;ltr&quot; style=&quot;line-height: 1.2 ; margin-top: 0pt ; margin-bottom: 0pt&quot;&gt;&lt;span style=&quot;font-size: 14pt; font-family: &amp;quot;times new roman&amp;quot;; color: rgb(0, 0, 0); background-color: transparent; font-weight: 400; font-style: normal; font-variant: normal; text-decoration: none; vertical-align: baseline;&quot;&gt;+login(string,Byte[])&lt;/span&gt;&lt;/p&gt;&lt;p dir=&quot;ltr&quot; style=&quot;line-height: 1.2 ; margin-top: 0pt ; margin-bottom: 0pt&quot;&gt;&lt;span style=&quot;font-size: 14pt; font-family: &amp;quot;times new roman&amp;quot;; color: rgb(0, 0, 0); background-color: transparent; font-weight: 400; font-style: normal; font-variant: normal; text-decoration: none; vertical-align: baseline;&quot;&gt;+forgottenPassword(string)&lt;/span&gt;&lt;/p&gt;&lt;/td&gt;&lt;/tr&gt;&lt;/tbody&gt;&lt;/table&gt;&lt;/b&gt;" style="text;whiteSpace=wrap;html=1;fontSize=16;" parent="WIyWlLk6GJQsqaUBKTNV-1" vertex="1">
          <mxGeometry x="1110" y="-210" width="340" height="260" as="geometry" />
        </mxCell>
        <mxCell id="wQyM_oGxPqQlltokziNy-101" value="" style="endArrow=diamondThin;endFill=0;endSize=24;html=1;fontSize=16;exitX=0;exitY=0.25;exitDx=0;exitDy=0;entryX=0;entryY=0.591;entryDx=0;entryDy=0;entryPerimeter=0;" parent="WIyWlLk6GJQsqaUBKTNV-1" source="wQyM_oGxPqQlltokziNy-67" target="wQyM_oGxPqQlltokziNy-96" edge="1">
          <mxGeometry width="160" relative="1" as="geometry">
            <mxPoint x="-220.9999999999991" y="-560.0000000000001" as="sourcePoint" />
            <mxPoint x="-700" y="-70" as="targetPoint" />
            <Array as="points">
              <mxPoint x="-690" y="-560" />
              <mxPoint x="-690" y="-70" />
            </Array>
          </mxGeometry>
        </mxCell>
        <mxCell id="wQyM_oGxPqQlltokziNy-103" value="" style="endArrow=diamondThin;endFill=0;endSize=24;html=1;fontSize=16;exitX=0;exitY=0.25;exitDx=0;exitDy=0;entryX=0;entryY=0.25;entryDx=0;entryDy=0;" parent="WIyWlLk6GJQsqaUBKTNV-1" edge="1">
          <mxGeometry width="160" relative="1" as="geometry">
            <mxPoint x="-9.999999999999545" y="-520" as="sourcePoint" />
            <mxPoint x="-159.99999999999955" y="-137.5" as="targetPoint" />
            <Array as="points">
              <mxPoint x="-280" y="-520" />
              <mxPoint x="-280" y="-137" />
            </Array>
          </mxGeometry>
        </mxCell>
        <mxCell id="wQyM_oGxPqQlltokziNy-105" value="" style="endArrow=diamondThin;endFill=0;endSize=24;html=1;fontSize=16;exitX=1;exitY=0.5;exitDx=0;exitDy=0;" parent="WIyWlLk6GJQsqaUBKTNV-1" source="wQyM_oGxPqQlltokziNy-67" target="wQyM_oGxPqQlltokziNy-5" edge="1">
          <mxGeometry width="160" relative="1" as="geometry">
            <mxPoint x="630" y="-500" as="sourcePoint" />
            <mxPoint x="580" y="-70" as="targetPoint" />
            <Array as="points">
              <mxPoint x="580" y="-490" />
              <mxPoint x="580" y="-80" />
            </Array>
          </mxGeometry>
        </mxCell>
        <mxCell id="wQyM_oGxPqQlltokziNy-106" value="" style="endArrow=diamondThin;endFill=0;endSize=24;html=1;fontSize=16;exitX=1;exitY=0.5;exitDx=0;exitDy=0;entryX=1.002;entryY=0.655;entryDx=0;entryDy=0;entryPerimeter=0;" parent="WIyWlLk6GJQsqaUBKTNV-1" target="wQyM_oGxPqQlltokziNy-16" edge="1">
          <mxGeometry width="160" relative="1" as="geometry">
            <mxPoint x="270" y="-530" as="sourcePoint" />
            <mxPoint x="1000" y="100" as="targetPoint" />
            <Array as="points">
              <mxPoint x="990" y="-530" />
              <mxPoint x="990" y="-100" />
            </Array>
          </mxGeometry>
        </mxCell>
        <mxCell id="wQyM_oGxPqQlltokziNy-109" value="" style="endArrow=diamondThin;endFill=0;endSize=24;html=1;fontSize=16;exitX=1.015;exitY=0.206;exitDx=0;exitDy=0;exitPerimeter=0;" parent="WIyWlLk6GJQsqaUBKTNV-1" source="wQyM_oGxPqQlltokziNy-67" target="wQyM_oGxPqQlltokziNy-100" edge="1">
          <mxGeometry width="160" relative="1" as="geometry">
            <mxPoint x="790" y="-570" as="sourcePoint" />
            <mxPoint x="1468.2080000000005" y="-90.36799999999994" as="targetPoint" />
            <Array as="points">
              <mxPoint x="1510" y="-570" />
              <mxPoint x="1510" y="-90" />
            </Array>
          </mxGeometry>
        </mxCell>
        <mxCell id="wQyM_oGxPqQlltokziNy-110" value="" style="endArrow=diamondThin;endFill=0;endSize=24;html=1;fontSize=16;exitX=1;exitY=0.5;exitDx=0;exitDy=0;" parent="WIyWlLk6GJQsqaUBKTNV-1" target="wQyM_oGxPqQlltokziNy-22" edge="1">
          <mxGeometry width="160" relative="1" as="geometry">
            <mxPoint x="270" y="-590" as="sourcePoint" />
            <mxPoint x="1930" y="-90" as="targetPoint" />
            <Array as="points">
              <mxPoint x="1990" y="-590" />
              <mxPoint x="1990" y="-80" />
            </Array>
          </mxGeometry>
        </mxCell>
        <mxCell id="wQyM_oGxPqQlltokziNy-118" value="*" style="text;align=center;fontStyle=1;verticalAlign=middle;spacingLeft=3;spacingRight=3;strokeColor=none;rotatable=0;points=[[0,0.5],[1,0.5]];portConstraint=eastwest;fontSize=16;" parent="WIyWlLk6GJQsqaUBKTNV-1" vertex="1">
          <mxGeometry x="-245" y="-190" width="80" height="26" as="geometry" />
        </mxCell>
        <mxCell id="wQyM_oGxPqQlltokziNy-119" value="*" style="text;align=center;fontStyle=1;verticalAlign=middle;spacingLeft=3;spacingRight=3;strokeColor=none;rotatable=0;points=[[0,0.5],[1,0.5]];portConstraint=eastwest;fontSize=16;" parent="WIyWlLk6GJQsqaUBKTNV-1" vertex="1">
          <mxGeometry x="-680" y="-108" width="80" height="26" as="geometry" />
        </mxCell>
        <mxCell id="wQyM_oGxPqQlltokziNy-120" value="*" style="text;align=center;fontStyle=1;verticalAlign=middle;spacingLeft=3;spacingRight=3;strokeColor=none;rotatable=0;points=[[0,0.5],[1,0.5]];portConstraint=eastwest;fontSize=16;" parent="WIyWlLk6GJQsqaUBKTNV-1" vertex="1">
          <mxGeometry x="520" y="-130" width="80" height="26" as="geometry" />
        </mxCell>
        <mxCell id="wQyM_oGxPqQlltokziNy-121" value="*" style="text;align=center;fontStyle=1;verticalAlign=middle;spacingLeft=3;spacingRight=3;strokeColor=none;rotatable=0;points=[[0,0.5],[1,0.5]];portConstraint=eastwest;fontSize=16;" parent="WIyWlLk6GJQsqaUBKTNV-1" vertex="1">
          <mxGeometry x="1000" y="-156" width="80" height="26" as="geometry" />
        </mxCell>
        <mxCell id="wQyM_oGxPqQlltokziNy-123" value="*" style="text;align=center;fontStyle=1;verticalAlign=middle;spacingLeft=3;spacingRight=3;strokeColor=none;rotatable=0;points=[[0,0.5],[1,0.5]];portConstraint=eastwest;fontSize=16;" parent="WIyWlLk6GJQsqaUBKTNV-1" vertex="1">
          <mxGeometry x="1494" y="-150" width="80" height="26" as="geometry" />
        </mxCell>
        <mxCell id="wQyM_oGxPqQlltokziNy-124" value="*" style="text;align=center;fontStyle=1;verticalAlign=middle;spacingLeft=3;spacingRight=3;strokeColor=none;rotatable=0;points=[[0,0.5],[1,0.5]];portConstraint=eastwest;fontSize=16;" parent="WIyWlLk6GJQsqaUBKTNV-1" vertex="1">
          <mxGeometry x="1988" y="-130" width="80" height="26" as="geometry" />
        </mxCell>
        <mxCell id="wQyM_oGxPqQlltokziNy-127" value="1" style="text;align=center;fontStyle=1;verticalAlign=middle;spacingLeft=3;spacingRight=3;strokeColor=none;rotatable=0;points=[[0,0.5],[1,0.5]];portConstraint=eastwest;fontSize=16;" parent="WIyWlLk6GJQsqaUBKTNV-1" vertex="1">
          <mxGeometry x="-90" y="-597" width="80" height="26" as="geometry" />
        </mxCell>
        <mxCell id="wQyM_oGxPqQlltokziNy-128" value="1" style="text;align=center;fontStyle=1;verticalAlign=middle;spacingLeft=3;spacingRight=3;strokeColor=none;rotatable=0;points=[[0,0.5],[1,0.5]];portConstraint=eastwest;fontSize=16;" parent="WIyWlLk6GJQsqaUBKTNV-1" vertex="1">
          <mxGeometry x="-80" y="-510" width="80" height="26" as="geometry" />
        </mxCell>
        <mxCell id="wQyM_oGxPqQlltokziNy-129" value="1" style="text;align=center;fontStyle=1;verticalAlign=middle;spacingLeft=3;spacingRight=3;strokeColor=none;rotatable=0;points=[[0,0.5],[1,0.5]];portConstraint=eastwest;fontSize=16;" parent="WIyWlLk6GJQsqaUBKTNV-1" vertex="1">
          <mxGeometry x="260" y="-470" width="80" height="26" as="geometry" />
        </mxCell>
        <mxCell id="wQyM_oGxPqQlltokziNy-130" value="1" style="text;align=center;fontStyle=1;verticalAlign=middle;spacingLeft=3;spacingRight=3;strokeColor=none;rotatable=0;points=[[0,0.5],[1,0.5]];portConstraint=eastwest;fontSize=16;" parent="WIyWlLk6GJQsqaUBKTNV-1" vertex="1">
          <mxGeometry x="260" y="-520" width="80" height="26" as="geometry" />
        </mxCell>
        <mxCell id="wQyM_oGxPqQlltokziNy-131" value="1" style="text;align=center;fontStyle=1;verticalAlign=middle;spacingLeft=3;spacingRight=3;strokeColor=none;rotatable=0;points=[[0,0.5],[1,0.5]];portConstraint=eastwest;fontSize=16;" parent="WIyWlLk6GJQsqaUBKTNV-1" vertex="1">
          <mxGeometry x="260" y="-560" width="80" height="26" as="geometry" />
        </mxCell>
        <mxCell id="wQyM_oGxPqQlltokziNy-133" value="" style="endArrow=block;dashed=1;endFill=0;endSize=12;html=1;strokeWidth=2;fontSize=16;exitX=0.25;exitY=1;exitDx=0;exitDy=0;entryX=0;entryY=0.158;entryDx=0;entryDy=0;entryPerimeter=0;" parent="WIyWlLk6GJQsqaUBKTNV-1" source="wQyM_oGxPqQlltokziNy-5" target="wQyM_oGxPqQlltokziNy-2" edge="1">
          <mxGeometry width="160" relative="1" as="geometry">
            <mxPoint x="770" y="380" as="sourcePoint" />
            <mxPoint x="350" y="190" as="targetPoint" />
            <Array as="points">
              <mxPoint x="321" y="210" />
            </Array>
          </mxGeometry>
        </mxCell>
        <mxCell id="wQyM_oGxPqQlltokziNy-134" value="" style="endArrow=block;dashed=1;endFill=0;endSize=12;html=1;strokeWidth=2;fontSize=16;exitX=0.551;exitY=0.993;exitDx=0;exitDy=0;exitPerimeter=0;entryX=1;entryY=0.25;entryDx=0;entryDy=0;" parent="WIyWlLk6GJQsqaUBKTNV-1" source="wQyM_oGxPqQlltokziNy-13" target="wQyM_oGxPqQlltokziNy-15" edge="1">
          <mxGeometry width="160" relative="1" as="geometry">
            <mxPoint x="-60" as="sourcePoint" />
            <mxPoint y="130" as="targetPoint" />
            <Array as="points">
              <mxPoint x="-5" y="118" />
            </Array>
          </mxGeometry>
        </mxCell>
        <mxCell id="wQyM_oGxPqQlltokziNy-135" value="" style="endArrow=block;dashed=1;endFill=0;endSize=12;html=1;strokeWidth=2;fontSize=16;entryX=0.992;entryY=0.313;entryDx=0;entryDy=0;entryPerimeter=0;" parent="WIyWlLk6GJQsqaUBKTNV-1" target="wQyM_oGxPqQlltokziNy-17" edge="1">
          <mxGeometry width="160" relative="1" as="geometry">
            <mxPoint x="860" y="50" as="sourcePoint" />
            <mxPoint x="810" y="430" as="targetPoint" />
            <Array as="points">
              <mxPoint x="860" y="549" />
            </Array>
          </mxGeometry>
        </mxCell>
        <mxCell id="wQyM_oGxPqQlltokziNy-142" value="" style="endArrow=block;dashed=1;endFill=0;endSize=12;html=1;strokeWidth=2;fontSize=16;entryX=0;entryY=0.75;entryDx=0;entryDy=0;" parent="WIyWlLk6GJQsqaUBKTNV-1" target="wQyM_oGxPqQlltokziNy-10" edge="1">
          <mxGeometry width="160" relative="1" as="geometry">
            <mxPoint x="-560" as="sourcePoint" />
            <mxPoint x="-470.75" y="210.01999999999953" as="targetPoint" />
            <Array as="points">
              <mxPoint x="-560" y="595" />
            </Array>
          </mxGeometry>
        </mxCell>
        <mxCell id="wQyM_oGxPqQlltokziNy-146" value="" style="endArrow=block;dashed=1;endFill=0;endSize=12;html=1;strokeWidth=2;fontSize=16;" parent="WIyWlLk6GJQsqaUBKTNV-1" edge="1">
          <mxGeometry width="160" relative="1" as="geometry">
            <mxPoint x="1891.44" y="25.5" as="sourcePoint" />
            <mxPoint x="90" y="1230" as="targetPoint" />
            <Array as="points">
              <mxPoint x="1891" y="1290" />
              <mxPoint x="90" y="1290" />
            </Array>
          </mxGeometry>
        </mxCell>
        <mxCell id="wQyM_oGxPqQlltokziNy-147" value="" style="endArrow=block;dashed=1;endFill=0;endSize=12;html=1;strokeWidth=2;fontSize=16;exitX=0.86;exitY=1.004;exitDx=0;exitDy=0;exitPerimeter=0;" parent="WIyWlLk6GJQsqaUBKTNV-1" source="wQyM_oGxPqQlltokziNy-100" edge="1">
          <mxGeometry width="160" relative="1" as="geometry">
            <mxPoint x="1801.4400000000005" y="50" as="sourcePoint" />
            <mxPoint x="280" y="860" as="targetPoint" />
            <Array as="points">
              <mxPoint x="1410" y="1230" />
              <mxPoint x="280" y="1230" />
            </Array>
          </mxGeometry>
        </mxCell>
        <mxCell id="wQyM_oGxPqQlltokziNy-148" value="" style="endArrow=block;dashed=1;endFill=0;endSize=12;html=1;strokeWidth=2;fontSize=16;exitX=0.5;exitY=1;exitDx=0;exitDy=0;" parent="WIyWlLk6GJQsqaUBKTNV-1" source="wQyM_oGxPqQlltokziNy-100" target="wQyM_oGxPqQlltokziNy-7" edge="1">
          <mxGeometry width="160" relative="1" as="geometry">
            <mxPoint x="1771.9400000000005" y="25.70000000000009" as="sourcePoint" />
            <mxPoint x="650" y="1080" as="targetPoint" />
            <Array as="points">
              <mxPoint x="1290" y="1200" />
              <mxPoint x="650" y="1200" />
              <mxPoint x="650" y="1045" />
            </Array>
          </mxGeometry>
        </mxCell>
        <mxCell id="wQyM_oGxPqQlltokziNy-149" value="" style="endArrow=none;html=1;strokeWidth=2;fontSize=16;exitX=0;exitY=0.5;exitDx=0;exitDy=0;entryX=0.903;entryY=-0.176;entryDx=0;entryDy=0;entryPerimeter=0;" parent="WIyWlLk6GJQsqaUBKTNV-1" source="wQyM_oGxPqQlltokziNy-14" target="wQyM_oGxPqQlltokziNy-127" edge="1">
          <mxGeometry width="50" height="50" relative="1" as="geometry">
            <mxPoint x="400" y="-465" as="sourcePoint" />
            <mxPoint x="450" y="-515" as="targetPoint" />
            <Array as="points">
              <mxPoint x="-80" y="-765" />
              <mxPoint x="-80" y="-602" />
            </Array>
          </mxGeometry>
        </mxCell>
        <mxCell id="wQyM_oGxPqQlltokziNy-150" value="" style="endArrow=block;dashed=1;endFill=0;endSize=12;html=1;strokeWidth=2;fontSize=16;" parent="WIyWlLk6GJQsqaUBKTNV-1" edge="1">
          <mxGeometry width="160" relative="1" as="geometry">
            <mxPoint x="941.44" y="40" as="sourcePoint" />
            <mxPoint x="1200" y="750" as="targetPoint" />
            <Array as="points">
              <mxPoint x="941" y="160" />
              <mxPoint x="1190" y="160" />
            </Array>
          </mxGeometry>
        </mxCell>
        <mxCell id="KkavXKgAMTgl7OBLyoBo-0" value="" style="endArrow=none;html=1;entryX=1.001;entryY=0.915;entryDx=0;entryDy=0;entryPerimeter=0;exitX=0;exitY=0.25;exitDx=0;exitDy=0;" edge="1" parent="WIyWlLk6GJQsqaUBKTNV-1" source="wQyM_oGxPqQlltokziNy-59" target="wQyM_oGxPqQlltokziNy-100">
          <mxGeometry width="50" height="50" relative="1" as="geometry">
            <mxPoint x="1490" y="310" as="sourcePoint" />
            <mxPoint x="1480" y="30" as="targetPoint" />
            <Array as="points">
              <mxPoint x="1490" y="303" />
              <mxPoint x="1490" y="110" />
              <mxPoint x="1490" y="28" />
            </Array>
          </mxGeometry>
        </mxCell>
        <mxCell id="KkavXKgAMTgl7OBLyoBo-1" value="&lt;h1 style=&quot;font-size: 21px&quot;&gt;&lt;font style=&quot;font-size: 21px&quot;&gt;Note:&lt;/font&gt;&lt;/h1&gt;&lt;div style=&quot;font-size: 21px&quot;&gt;&lt;font style=&quot;font-size: 21px&quot;&gt;The control classes are all connected to the GUI via a simple association. This was not possible to highlight diagrammatically without crossing lines&lt;/font&gt;&lt;/div&gt;" style="text;html=1;strokeColor=none;fillColor=none;spacing=5;spacingTop=-20;whiteSpace=wrap;overflow=hidden;rounded=0;" vertex="1" parent="WIyWlLk6GJQsqaUBKTNV-1">
          <mxGeometry x="1970" y="260" width="350" height="266" as="geometry" />
        </mxCell>
      </root>
    </mxGraphModel>
  </diagram>
</mxfile>
